<svg xmlns="http://www.w3.org/2000/svg" xmlns:xlink="http://www.w3.org/1999/xlink" width="1080" zoomAndPan="magnify" viewBox="0 0 810 809.999993" height="1080" preserveAspectRatio="xMidYMid meet" version="1.0"><defs><clipPath id="8f93dca736"><path d="M 261 290 L 558 290 L 558 691.550781 L 261 691.550781 Z M 261 290 " clip-rule="nonzero"/></clipPath><clipPath id="6e63593611"><path d="M 118.550781 118.550781 L 291 118.550781 L 291 291 L 118.550781 291 Z M 118.550781 118.550781 " clip-rule="nonzero"/></clipPath><clipPath id="8593a4a834"><path d="M 462 118.550781 L 691.550781 118.550781 L 691.550781 272 L 462 272 Z M 462 118.550781 " clip-rule="nonzero"/></clipPath><clipPath id="a0436abd28"><path d="M 118.550781 500 L 272 500 L 272 691.550781 L 118.550781 691.550781 Z M 118.550781 500 " clip-rule="nonzero"/></clipPath><clipPath id="3a1828d334"><path d="M 481 481 L 691.550781 481 L 691.550781 691.550781 L 481 691.550781 Z M 481 481 " clip-rule="nonzero"/></clipPath></defs><g clip-path="url(#8f93dca736)"><path fill="#000000" d="M 290.453125 290.453125 C 274.65625 290.453125 261.800781 303.308594 261.800781 319.101562 C 261.800781 319.675781 261.859375 320.25 261.964844 320.8125 L 278.210938 410.179688 C 280.625 423.492188 291.980469 433.246094 305.417969 433.683594 L 347.753906 441.628906 L 347.753906 617.398438 C 342.605469 616.070312 337.457031 614.636719 332.472656 612.976562 L 326.410156 631.082031 C 332.625 633.164062 339.050781 635.027344 345.488281 636.613281 L 347.753906 627.453125 L 347.753906 658.128906 C 347.753906 676.558594 362.746094 691.550781 381.175781 691.550781 C 390.535156 691.550781 398.980469 687.664062 405.050781 681.449219 C 411.125 687.664062 419.570312 691.550781 428.925781 691.550781 C 447.359375 691.550781 462.351562 676.558594 462.351562 658.128906 L 462.351562 441.667969 L 506.015625 433.691406 C 518.507812 433.273438 529.394531 424.714844 532.707031 412.597656 L 557.519531 321.625 C 557.738281 320.792969 557.851562 319.953125 557.851562 319.101562 C 557.851562 303.308594 545 290.453125 529.203125 290.453125 C 513.894531 290.453125 501.355469 302.515625 500.589844 317.632812 L 485.769531 369.480469 C 484.613281 373.558594 480.839844 376.402344 476.589844 376.402344 L 443.003906 376.402344 C 449.070312 368.398438 452.800781 358.542969 452.800781 347.753906 C 452.800781 321.421875 431.382812 300.003906 405.050781 300.003906 C 378.722656 300.003906 357.300781 321.421875 357.300781 347.753906 C 357.300781 358.542969 361.035156 368.398438 367.101562 376.402344 L 335.671875 376.402344 C 330.953125 376.402344 326.886719 372.878906 326.226562 368.199219 L 319.101562 318.359375 C 318.691406 302.90625 306 290.453125 290.453125 290.453125 Z M 376.402344 347.753906 C 376.402344 331.957031 389.257812 319.101562 405.050781 319.101562 C 420.847656 319.101562 433.703125 331.957031 433.703125 347.753906 C 433.703125 363.546875 420.847656 376.402344 405.050781 376.402344 C 389.257812 376.402344 376.402344 363.546875 376.402344 347.753906 Z M 335.664062 395.503906 L 476.589844 395.503906 C 489.320312 395.503906 500.648438 386.957031 504.144531 374.722656 L 519.289062 321.730469 C 519.527344 320.878906 519.652344 319.992188 519.652344 319.101562 C 519.652344 313.839844 523.929688 309.550781 529.203125 309.550781 C 534.109375 309.550781 538.160156 313.277344 538.695312 318.042969 L 514.277344 407.574219 C 513.148438 411.707031 509.367188 414.601562 505.070312 414.601562 C 504.488281 414.601562 503.921875 414.648438 503.351562 414.753906 L 451.082031 424.304688 C 446.546875 425.136719 443.253906 429.089844 443.253906 433.703125 L 443.253906 658.128906 C 443.253906 666.027344 436.824219 672.453125 428.925781 672.453125 C 421.03125 672.453125 414.601562 666.027344 414.601562 658.128906 L 414.601562 529.203125 L 395.503906 529.203125 L 395.503906 658.128906 C 395.503906 666.027344 389.074219 672.453125 381.175781 672.453125 C 373.28125 672.453125 366.851562 666.027344 366.851562 658.128906 L 366.851562 433.703125 C 366.851562 429.109375 363.578125 425.164062 359.070312 424.316406 L 308.160156 414.765625 C 307.574219 414.660156 306.972656 414.601562 306.390625 414.601562 C 301.777344 414.601562 297.824219 411.308594 296.996094 406.761719 L 280.929688 318.386719 C 281.292969 313.457031 285.429688 309.550781 290.453125 309.550781 C 295.722656 309.550781 300.003906 313.839844 300.003906 319.101562 C 300.003906 319.550781 300.03125 320.011719 300.097656 320.457031 L 307.308594 370.902344 C 309.3125 384.929688 321.5 395.503906 335.664062 395.503906 Z M 335.664062 395.503906 " fill-opacity="1" fill-rule="nonzero"/></g><g clip-path="url(#6e63593611)"><path fill="#000000" d="M 204.503906 290.453125 C 251.898438 290.453125 290.453125 251.890625 290.453125 204.503906 C 290.453125 157.117188 251.898438 118.550781 204.503906 118.550781 C 157.105469 118.550781 118.550781 157.117188 118.550781 204.503906 C 118.550781 251.890625 157.105469 290.453125 204.503906 290.453125 Z M 204.503906 137.652344 C 241.355469 137.652344 271.351562 167.640625 271.351562 204.503906 C 271.351562 241.367188 241.355469 271.351562 204.503906 271.351562 C 167.648438 271.351562 137.652344 241.367188 137.652344 204.503906 C 137.652344 167.640625 167.648438 137.652344 204.503906 137.652344 Z M 204.503906 137.652344 " fill-opacity="1" fill-rule="nonzero"/></g><path fill="#000000" d="M 194.953125 223.601562 L 233.152344 223.601562 L 233.152344 204.503906 L 204.503906 204.503906 L 204.503906 166.300781 L 185.402344 166.300781 L 185.402344 214.050781 C 185.402344 219.324219 189.671875 223.601562 194.953125 223.601562 Z M 194.953125 223.601562 " fill-opacity="1" fill-rule="nonzero"/><g clip-path="url(#8593a4a834)"><path fill="#000000" d="M 682.003906 214.050781 L 672.453125 214.050781 L 672.453125 128.101562 C 672.453125 122.832031 668.183594 118.550781 662.902344 118.550781 L 491.003906 118.550781 C 485.722656 118.550781 481.453125 122.832031 481.453125 128.101562 L 481.453125 214.050781 L 471.902344 214.050781 C 466.621094 214.050781 462.351562 218.332031 462.351562 223.601562 C 462.351562 249.933594 483.773438 271.351562 510.101562 271.351562 L 643.800781 271.351562 C 670.132812 271.351562 691.550781 249.933594 691.550781 223.601562 C 691.550781 218.332031 687.285156 214.050781 682.003906 214.050781 Z M 500.550781 137.652344 L 653.351562 137.652344 L 653.351562 214.050781 L 500.550781 214.050781 Z M 643.800781 252.253906 L 510.101562 252.253906 C 497.648438 252.253906 487.03125 244.269531 483.085938 233.152344 L 670.820312 233.152344 C 666.875 244.269531 656.253906 252.253906 643.800781 252.253906 Z M 643.800781 252.253906 " fill-opacity="1" fill-rule="nonzero"/></g><path fill="#000000" d="M 529.203125 166.300781 L 548.300781 166.300781 L 548.300781 194.953125 L 529.203125 194.953125 Z M 529.203125 166.300781 " fill-opacity="1" fill-rule="nonzero"/><path fill="#000000" d="M 567.402344 156.753906 L 586.503906 156.753906 L 586.503906 194.953125 L 567.402344 194.953125 Z M 567.402344 156.753906 " fill-opacity="1" fill-rule="nonzero"/><path fill="#000000" d="M 605.601562 166.300781 L 624.703125 166.300781 L 624.703125 194.953125 L 605.601562 194.953125 Z M 605.601562 166.300781 " fill-opacity="1" fill-rule="nonzero"/><g clip-path="url(#a0436abd28)"><path fill="#000000" d="M 128.101562 691.550781 L 261.800781 691.550781 C 267.082031 691.550781 271.351562 687.273438 271.351562 682.003906 L 271.351562 548.300781 C 271.351562 545.398438 270.035156 542.660156 267.769531 540.84375 L 220.019531 502.644531 C 218.320312 501.289062 216.230469 500.550781 214.050781 500.550781 L 128.101562 500.550781 C 122.820312 500.550781 118.550781 504.832031 118.550781 510.101562 L 118.550781 682.003906 C 118.550781 687.273438 122.820312 691.550781 128.101562 691.550781 Z M 137.652344 519.652344 L 210.699219 519.652344 L 252.253906 552.886719 L 252.253906 672.453125 L 137.652344 672.453125 Z M 137.652344 519.652344 " fill-opacity="1" fill-rule="nonzero"/></g><g clip-path="url(#3a1828d334)"><path fill="#000000" d="M 586.503906 481.453125 C 528.582031 481.453125 481.453125 528.582031 481.453125 586.503906 C 481.453125 620.691406 497.945312 651.023438 523.300781 670.21875 C 523.367188 670.265625 523.386719 670.351562 523.453125 670.398438 C 523.855469 670.703125 524.285156 670.960938 524.695312 671.257812 C 526.394531 672.5 528.105469 673.703125 529.871094 674.839844 C 530.710938 675.382812 531.570312 675.871094 532.421875 676.386719 C 534.128906 677.417969 535.839844 678.460938 537.617188 679.40625 C 539.132812 680.207031 540.691406 680.90625 542.238281 681.628906 C 544.175781 682.539062 546.125 683.398438 548.121094 684.179688 C 550.164062 684.992188 552.21875 685.773438 554.308594 686.453125 C 555.386719 686.796875 556.488281 687.09375 557.574219 687.398438 C 559.609375 687.980469 561.652344 688.523438 563.726562 688.984375 C 564.832031 689.230469 565.941406 689.453125 567.058594 689.660156 C 569.265625 690.074219 571.480469 690.40625 573.714844 690.683594 C 574.71875 690.808594 575.703125 690.949219 576.703125 691.046875 C 579.953125 691.363281 583.207031 691.550781 586.503906 691.550781 C 589.796875 691.550781 593.054688 691.363281 596.300781 691.054688 C 597.304688 690.960938 598.296875 690.816406 599.289062 690.691406 C 601.523438 690.417969 603.75 690.089844 605.945312 689.671875 C 607.0625 689.460938 608.171875 689.230469 609.277344 688.992188 C 611.351562 688.535156 613.394531 687.992188 615.429688 687.40625 C 616.519531 687.09375 617.617188 686.804688 618.695312 686.460938 C 620.785156 685.785156 622.839844 685 624.882812 684.191406 C 626.878906 683.40625 628.828125 682.539062 630.765625 681.640625 C 632.3125 680.914062 633.871094 680.21875 635.390625 679.414062 C 637.164062 678.480469 638.863281 677.4375 640.585938 676.398438 C 641.433594 675.882812 642.292969 675.382812 643.132812 674.851562 C 644.902344 673.714844 646.621094 672.5 648.308594 671.269531 C 648.722656 670.972656 649.152344 670.714844 649.550781 670.410156 C 649.617188 670.359375 649.636719 670.273438 649.703125 670.226562 C 675.058594 651.023438 691.550781 620.691406 691.550781 586.503906 C 691.550781 528.582031 644.421875 481.453125 586.503906 481.453125 Z M 538.753906 657.851562 L 538.753906 634.253906 C 538.753906 613.183594 555.886719 596.050781 576.953125 596.050781 L 596.050781 596.050781 C 617.121094 596.050781 634.253906 613.183594 634.253906 634.253906 L 634.253906 657.851562 C 630.699219 660.238281 626.996094 662.328125 623.164062 664.125 C 623.15625 664.125 623.144531 664.132812 623.136719 664.132812 C 600.148438 674.886719 572.847656 674.886719 549.859375 664.132812 C 549.851562 664.132812 549.839844 664.125 549.832031 664.125 C 546.011719 662.328125 542.304688 660.238281 538.753906 657.851562 Z M 586.503906 576.953125 C 575.96875 576.953125 567.402344 568.386719 567.402344 557.851562 C 567.402344 547.320312 575.96875 538.753906 586.503906 538.753906 C 597.035156 538.753906 605.601562 547.320312 605.601562 557.851562 C 605.601562 568.386719 597.035156 576.953125 586.503906 576.953125 Z M 653.351562 640.402344 L 653.351562 634.253906 C 653.351562 609.96875 638.148438 589.214844 616.777344 580.886719 C 621.675781 574.46875 624.703125 566.542969 624.703125 557.851562 C 624.703125 536.785156 607.570312 519.652344 586.503906 519.652344 C 565.433594 519.652344 548.300781 536.785156 548.300781 557.851562 C 548.300781 566.542969 551.328125 574.46875 556.230469 580.886719 C 534.855469 589.214844 519.652344 609.96875 519.652344 634.253906 L 519.652344 640.402344 C 507.734375 625.648438 500.550781 606.902344 500.550781 586.503906 C 500.550781 539.117188 539.105469 500.550781 586.503906 500.550781 C 633.898438 500.550781 672.453125 539.117188 672.453125 586.503906 C 672.453125 606.910156 665.269531 625.648438 653.351562 640.402344 Z M 653.351562 640.402344 " fill-opacity="1" fill-rule="nonzero"/></g><path fill="#000000" d="M 156.753906 548.300781 L 223.601562 548.300781 L 223.601562 567.402344 L 156.753906 567.402344 Z M 156.753906 548.300781 " fill-opacity="1" fill-rule="nonzero"/><path fill="#000000" d="M 156.753906 586.503906 L 233.152344 586.503906 L 233.152344 605.601562 L 156.753906 605.601562 Z M 156.753906 586.503906 " fill-opacity="1" fill-rule="nonzero"/><path fill="#000000" d="M 156.753906 624.703125 L 233.152344 624.703125 L 233.152344 643.800781 L 156.753906 643.800781 Z M 156.753906 624.703125 " fill-opacity="1" fill-rule="nonzero"/><path fill="#000000" d="M 460.308594 153.371094 C 453.84375 151.902344 447.28125 150.6875 440.789062 149.753906 L 438.066406 168.652344 C 444.054688 169.511719 450.117188 170.636719 456.097656 171.996094 Z M 460.308594 153.371094 " fill-opacity="1" fill-rule="nonzero"/><path fill="#000000" d="M 312.550781 185.726562 L 304.824219 168.261719 C 298.816406 170.914062 292.8125 173.855469 287.003906 177.007812 L 296.085938 193.804688 C 301.464844 190.894531 307.003906 188.183594 312.550781 185.726562 Z M 312.550781 185.726562 " fill-opacity="1" fill-rule="nonzero"/><path fill="#000000" d="M 405.050781 166.300781 C 410.019531 166.300781 414.9375 166.464844 419.828125 166.769531 L 421.058594 147.707031 C 415.757812 147.375 410.417969 147.203125 405.050781 147.203125 L 401.203125 147.230469 L 401.5 166.332031 Z M 405.050781 166.300781 " fill-opacity="1" fill-rule="nonzero"/><path fill="#000000" d="M 347.140625 173.675781 L 342.328125 155.1875 C 335.96875 156.839844 329.578125 158.785156 323.324219 160.964844 L 329.609375 179.015625 C 335.375 177 341.269531 175.210938 347.140625 173.675781 Z M 347.140625 173.675781 " fill-opacity="1" fill-rule="nonzero"/><path fill="#000000" d="M 383.203125 167.324219 L 381.398438 148.308594 C 374.816406 148.929688 368.199219 149.828125 361.722656 150.964844 L 365.027344 169.777344 C 371.007812 168.726562 377.117188 167.90625 383.203125 167.324219 Z M 383.203125 167.324219 " fill-opacity="1" fill-rule="nonzero"/><path fill="#000000" d="M 191.140625 477.996094 C 188.957031 472.332031 186.96875 466.496094 185.25 460.664062 L 166.933594 466.066406 C 168.796875 472.410156 170.953125 478.730469 173.332031 484.882812 Z M 191.140625 477.996094 " fill-opacity="1" fill-rule="nonzero"/><path fill="#000000" d="M 158.269531 367.808594 L 177.257812 369.917969 C 177.925781 363.863281 178.851562 357.769531 180.007812 351.800781 L 161.261719 348.171875 C 160.007812 354.628906 159.007812 361.238281 158.269531 367.808594 Z M 158.269531 367.808594 " fill-opacity="1" fill-rule="nonzero"/><path fill="#000000" d="M 156.753906 395.503906 C 156.753906 399.503906 156.847656 403.488281 157.03125 407.441406 L 176.109375 406.550781 C 175.949219 402.894531 175.851562 399.207031 175.851562 395.503906 C 175.851562 393.066406 175.890625 390.640625 175.96875 388.226562 L 156.886719 387.59375 C 156.789062 390.222656 156.753906 392.855469 156.753906 395.503906 Z M 156.753906 395.503906 " fill-opacity="1" fill-rule="nonzero"/><path fill="#000000" d="M 180.75 442.890625 C 179.5 436.902344 178.480469 430.820312 177.714844 424.8125 L 158.757812 427.226562 C 159.589844 433.730469 160.695312 440.320312 162.0625 446.804688 Z M 180.75 442.890625 " fill-opacity="1" fill-rule="nonzero"/><path fill="#000000" d="M 189.824219 316.496094 L 171.898438 309.925781 C 169.617188 316.140625 167.5625 322.503906 165.804688 328.824219 L 184.199219 333.941406 C 185.832031 328.109375 187.714844 322.246094 189.824219 316.496094 Z M 189.824219 316.496094 " fill-opacity="1" fill-rule="nonzero"/><path fill="#000000" d="M 289.898438 615.542969 C 295.753906 618.609375 301.789062 621.476562 307.84375 624.054688 L 315.320312 606.480469 C 309.742188 604.101562 304.167969 601.457031 298.761719 598.621094 Z M 289.898438 615.542969 " fill-opacity="1" fill-rule="nonzero"/><path fill="#000000" d="M 627.617188 450.511719 L 646.152344 455.085938 C 647.296875 450.453125 648.308594 445.753906 649.1875 441.019531 L 630.414062 437.523438 C 629.601562 441.898438 628.664062 446.230469 627.617188 450.511719 Z M 627.617188 450.511719 " fill-opacity="1" fill-rule="nonzero"/><path fill="#000000" d="M 632.171875 364.503906 C 632.992188 370.558594 633.574219 376.6875 633.898438 382.742188 L 652.980469 381.722656 C 652.625 375.160156 651.988281 368.503906 651.109375 361.945312 Z M 632.171875 364.503906 " fill-opacity="1" fill-rule="nonzero"/><path fill="#000000" d="M 653.285156 401.546875 L 634.1875 401.097656 C 634.042969 407.125 633.660156 413.285156 633.03125 419.40625 L 652.035156 421.355469 C 652.710938 414.734375 653.132812 408.0625 653.285156 401.546875 Z M 653.285156 401.546875 " fill-opacity="1" fill-rule="nonzero"/><path fill="#000000" d="M 610.941406 294.65625 C 613.613281 300.117188 616.109375 305.75 618.332031 311.40625 L 636.105469 304.40625 C 633.679688 298.265625 630.988281 292.152344 628.074219 286.230469 Z M 610.941406 294.65625 " fill-opacity="1" fill-rule="nonzero"/><path fill="#000000" d="M 624.378906 328.730469 C 626.136719 334.488281 627.691406 340.457031 629.007812 346.464844 L 647.660156 342.375 C 646.238281 335.863281 644.546875 329.398438 642.65625 323.152344 Z M 624.378906 328.730469 " fill-opacity="1" fill-rule="nonzero"/></svg>