<svg xmlns="http://www.w3.org/2000/svg" xmlns:xlink="http://www.w3.org/1999/xlink" width="1080" zoomAndPan="magnify" viewBox="0 0 810 809.999993" height="1080" preserveAspectRatio="xMidYMid meet" version="1.0"><defs><clipPath id="4cc989b131"><path d="M 592 112.238281 L 612 112.238281 L 612 142 L 592 142 Z M 592 112.238281 " clip-rule="nonzero"/></clipPath><clipPath id="d10e479bfa"><path d="M 92.722656 541 L 717.472656 541 L 717.472656 697.988281 L 92.722656 697.988281 Z M 92.722656 541 " clip-rule="nonzero"/></clipPath></defs><path fill="#000000" d="M 405.097656 292.847656 C 442.679688 292.847656 473.429688 262.09375 473.429688 224.507812 C 473.429688 186.921875 442.679688 156.171875 405.097656 156.171875 C 367.515625 156.171875 336.765625 186.921875 336.765625 224.507812 C 336.765625 262.09375 367.515625 292.847656 405.097656 292.847656 Z M 405.097656 175.695312 C 431.941406 175.695312 453.90625 197.660156 453.90625 224.507812 C 453.90625 251.355469 431.941406 273.320312 405.097656 273.320312 C 378.253906 273.320312 356.289062 251.355469 356.289062 224.507812 C 356.289062 197.660156 378.253906 175.695312 405.097656 175.695312 Z M 405.097656 175.695312 " fill-opacity="1" fill-rule="nonzero"/><path fill="#000000" d="M 255.742188 386.566406 C 250.375 393.398438 247.933594 401.699219 249.398438 409.996094 L 269.410156 529.585938 C 269.898438 547.160156 285.515625 560.828125 304.550781 560.828125 L 505.15625 560.828125 C 524.191406 560.828125 539.808594 546.671875 540.296875 529.585938 L 560.308594 409.996094 C 561.773438 401.699219 559.332031 392.910156 553.964844 386.078125 C 548.105469 379.242188 539.808594 375.339844 531.023438 375.339844 L 278.683594 375.339844 C 269.898438 375.828125 261.601562 379.730469 255.742188 386.566406 Z M 541.761719 407.066406 L 521.75 529.097656 C 521.75 535.933594 514.429688 541.789062 505.644531 541.789062 L 304.550781 541.789062 C 295.765625 541.789062 288.445312 535.933594 288.445312 529.097656 L 268.433594 406.578125 C 267.457031 400.234375 272.339844 395.351562 278.683594 395.351562 L 531.511719 395.351562 C 540.296875 395.351562 542.25 403.164062 541.761719 407.066406 Z M 541.761719 407.066406 " fill-opacity="1" fill-rule="nonzero"/><path fill="#000000" d="M 405.097656 497.859375 C 421.203125 497.859375 434.382812 484.679688 434.382812 468.570312 C 434.382812 452.460938 421.203125 439.285156 405.097656 439.285156 C 388.992188 439.285156 375.8125 452.460938 375.8125 468.570312 C 375.8125 484.679688 388.992188 497.859375 405.097656 497.859375 Z M 405.097656 458.808594 C 410.464844 458.808594 414.859375 463.203125 414.859375 468.570312 C 414.859375 473.941406 410.464844 478.332031 405.097656 478.332031 C 399.726562 478.332031 395.335938 473.941406 395.335938 468.570312 C 395.335938 463.203125 399.726562 458.808594 405.097656 458.808594 Z M 405.097656 458.808594 " fill-opacity="1" fill-rule="nonzero"/><path fill="#000000" d="M 561.773438 251.84375 C 565.1875 256.238281 568.117188 260.628906 570.558594 265.511719 C 572.023438 269.417969 573.488281 273.320312 573.976562 277.226562 C 574.949219 284.546875 581.296875 289.917969 589.105469 289.917969 L 612.046875 289.917969 C 619.367188 289.917969 625.710938 284.546875 627.175781 277.226562 C 627.664062 273.320312 629.128906 269.417969 630.59375 266 C 633.519531 259.652344 636.9375 253.796875 641.820312 248.914062 C 652.070312 238.664062 657.925781 224.996094 657.925781 210.839844 C 657.925781 180.578125 632.546875 155.683594 601.308594 155.683594 C 570.070312 155.683594 544.691406 180.089844 544.691406 210.839844 C 544.691406 224.507812 550.546875 237.6875 559.332031 247.9375 C 559.820312 248.914062 560.796875 250.378906 561.773438 251.84375 Z M 600.332031 175.207031 C 620.832031 175.207031 637.425781 191.316406 637.425781 210.839844 C 637.425781 216.699219 635.960938 222.554688 632.546875 227.925781 C 629.128906 233.78125 624.246094 237.199219 620.34375 242.570312 C 617.902344 245.496094 614.972656 250.867188 611.558594 258.1875 C 609.605469 262.09375 608.628906 266.488281 607.652344 270.390625 L 592.035156 270.390625 C 591.058594 266 589.59375 262.09375 587.640625 257.699219 C 584.226562 249.402344 579.832031 243.058594 576.414062 239.640625 C 574.949219 237.6875 573 235.734375 571.046875 233.78125 C 565.1875 227.4375 562.261719 219.140625 562.261719 210.839844 C 563.238281 190.828125 579.832031 175.207031 600.332031 175.207031 Z M 600.332031 175.207031 " fill-opacity="1" fill-rule="nonzero"/><g clip-path="url(#4cc989b131)"><path fill="#000000" d="M 601.796875 141.039062 C 607.164062 141.039062 611.558594 136.644531 611.558594 131.277344 L 611.558594 122.003906 C 611.558594 116.632812 607.164062 112.238281 601.796875 112.238281 C 596.425781 112.238281 592.035156 116.632812 592.035156 122.003906 L 592.035156 131.277344 C 592.035156 136.644531 596.425781 141.039062 601.796875 141.039062 Z M 601.796875 141.039062 " fill-opacity="1" fill-rule="nonzero"/></g><path fill="#000000" d="M 553.964844 146.898438 C 556.890625 151.289062 563.238281 152.265625 567.628906 149.335938 C 572.023438 146.410156 573 140.0625 570.070312 135.667969 L 565.675781 129.324219 C 562.261719 124.929688 555.914062 123.953125 551.523438 126.882812 C 547.128906 129.8125 546.152344 136.15625 549.082031 140.550781 C 549.082031 140.550781 553.964844 146.898438 553.964844 146.898438 Z M 553.964844 146.898438 " fill-opacity="1" fill-rule="nonzero"/><path fill="#000000" d="M 520.285156 173.253906 C 520.285156 173.253906 527.117188 177.648438 527.117188 177.648438 C 531.511719 180.578125 537.855469 179.601562 540.785156 175.207031 C 543.714844 170.816406 542.738281 164.46875 538.34375 161.539062 L 531.511719 157.148438 C 527.117188 154.21875 520.773438 155.195312 517.84375 159.589844 C 514.917969 164.46875 515.894531 170.328125 520.285156 173.253906 Z M 520.285156 173.253906 " fill-opacity="1" fill-rule="nonzero"/><path fill="#000000" d="M 512.476562 218.652344 L 522.238281 218.652344 C 527.605469 218.652344 532 214.257812 532 208.886719 C 532 203.519531 527.605469 199.125 522.238281 199.125 L 512.476562 199.125 C 507.105469 199.125 502.714844 203.519531 502.714844 208.886719 C 502.714844 214.257812 507.105469 218.652344 512.476562 218.652344 Z M 512.476562 218.652344 " fill-opacity="1" fill-rule="nonzero"/><path fill="#000000" d="M 668.664062 208.886719 C 668.664062 214.257812 673.054688 218.652344 678.425781 218.652344 L 688.1875 218.652344 C 693.554688 218.652344 697.949219 214.257812 697.949219 208.886719 C 697.949219 203.519531 693.554688 199.125 688.1875 199.125 L 678.425781 199.125 C 673.054688 199.125 668.664062 203.03125 668.664062 208.886719 Z M 668.664062 208.886719 " fill-opacity="1" fill-rule="nonzero"/><path fill="#000000" d="M 670.617188 179.601562 C 675.007812 179.601562 679.402344 175.695312 682.816406 173.253906 C 687.210938 170.328125 688.675781 163.980469 685.257812 159.589844 C 682.328125 155.195312 675.984375 153.730469 671.59375 157.148438 L 664.757812 161.539062 C 660.367188 164.46875 658.902344 170.816406 662.316406 175.207031 C 664.269531 178.136719 667.6875 179.601562 670.617188 179.601562 Z M 670.617188 179.601562 " fill-opacity="1" fill-rule="nonzero"/><path fill="#000000" d="M 635.960938 149.335938 C 640.355469 152.265625 646.699219 151.289062 649.628906 146.898438 L 654.019531 140.550781 C 656.949219 136.15625 655.972656 129.8125 651.582031 126.882812 C 647.1875 123.953125 640.84375 124.929688 637.914062 129.324219 L 633.519531 135.667969 C 630.59375 140.0625 631.570312 146.410156 635.960938 149.335938 Z M 635.960938 149.335938 " fill-opacity="1" fill-rule="nonzero"/><path fill="#000000" d="M 590.570312 307.488281 C 585.199219 307.488281 580.808594 311.882812 580.808594 317.253906 C 580.808594 322.621094 585.199219 327.015625 590.570312 327.015625 L 610.09375 327.015625 C 615.460938 327.015625 619.855469 322.621094 619.855469 317.253906 C 619.855469 311.882812 615.460938 307.488281 610.09375 307.488281 Z M 590.570312 307.488281 " fill-opacity="1" fill-rule="nonzero"/><path fill="#000000" d="M 189.851562 224.019531 L 185.945312 247.449219 C 185.457031 251.355469 186.921875 254.773438 189.851562 257.214844 C 192.78125 259.164062 196.683594 259.652344 200.101562 257.699219 L 219.625 246.960938 C 219.625 246.960938 239.148438 257.699219 239.148438 257.699219 C 242.078125 259.652344 246.46875 259.164062 249.398438 257.214844 C 252.328125 255.261719 253.789062 251.355469 253.304688 247.449219 L 249.398438 224.019531 L 265.503906 207.425781 C 267.945312 204.984375 268.921875 201.078125 267.945312 197.660156 C 266.96875 194.246094 263.550781 191.804688 260.136719 191.316406 L 238.171875 187.898438 L 228.410156 166.910156 C 226.945312 163.492188 223.53125 161.050781 219.625 161.050781 C 215.71875 161.050781 212.304688 163.003906 210.839844 166.910156 L 201.078125 187.898438 L 179.113281 191.316406 C 175.695312 191.804688 172.28125 194.246094 171.304688 197.660156 C 170.328125 201.078125 170.816406 204.984375 173.746094 207.425781 Z M 208.886719 205.960938 C 212.304688 205.472656 214.742188 203.519531 216.207031 200.589844 L 219.625 193.757812 L 223.042969 200.589844 C 224.503906 203.519531 226.945312 205.472656 230.363281 205.960938 L 238.660156 207.425781 L 232.316406 213.769531 C 230.363281 216.210938 229.386719 219.140625 229.875 222.066406 L 231.339844 230.367188 L 224.503906 226.949219 C 223.042969 225.972656 221.578125 225.972656 219.625 225.972656 C 217.671875 225.972656 216.207031 226.460938 214.742188 226.949219 L 208.398438 230.367188 L 209.863281 222.066406 C 210.351562 219.140625 209.375 215.722656 207.421875 213.769531 L 201.078125 207.425781 Z M 208.886719 205.960938 " fill-opacity="1" fill-rule="nonzero"/><path fill="#000000" d="M 292.835938 356.300781 L 292.835938 354.351562 C 292.835938 311.394531 323.585938 302.609375 348.96875 302.609375 L 365.074219 302.609375 C 355.800781 297.726562 347.015625 291.382812 340.183594 283.570312 C 298.207031 286.5 273.3125 312.371094 273.3125 354.351562 L 273.3125 356.789062 C 275.265625 356.789062 276.730469 356.300781 278.683594 356.300781 Z M 292.835938 356.300781 " fill-opacity="1" fill-rule="nonzero"/><path fill="#000000" d="M 531.511719 356.300781 C 533.464844 356.300781 534.929688 356.300781 536.878906 356.789062 L 536.878906 354.351562 C 536.878906 312.859375 511.988281 286.5 470.011719 283.570312 C 463.179688 291.382812 454.394531 297.726562 445.121094 302.609375 L 461.226562 302.609375 C 486.609375 302.609375 517.355469 311.394531 517.355469 354.351562 L 517.355469 356.300781 Z M 531.511719 356.300781 " fill-opacity="1" fill-rule="nonzero"/><g clip-path="url(#d10e479bfa)"><path fill="#000000" d="M 688.1875 541.789062 L 558.84375 541.789062 C 556.890625 549.113281 553.476562 555.457031 548.59375 561.316406 L 688.1875 561.316406 C 693.554688 561.316406 697.949219 565.707031 697.949219 571.078125 L 697.949219 580.839844 L 112.246094 580.839844 L 112.246094 571.078125 C 112.246094 565.707031 116.640625 561.316406 122.007812 561.316406 L 262.089844 561.316406 C 257.207031 555.457031 253.789062 549.113281 251.839844 541.789062 L 122.007812 541.789062 C 105.902344 541.789062 92.722656 554.96875 92.722656 571.078125 L 92.722656 590.601562 C 92.722656 595.972656 97.117188 600.363281 102.484375 600.363281 L 146.414062 600.363281 L 146.414062 688.226562 C 146.414062 693.597656 150.804688 697.988281 156.175781 697.988281 C 161.542969 697.988281 165.933594 693.597656 165.933594 688.226562 L 165.933594 600.363281 L 185.457031 600.363281 L 185.457031 688.226562 C 185.457031 693.597656 189.851562 697.988281 195.21875 697.988281 C 200.589844 697.988281 204.980469 693.597656 204.980469 688.226562 L 204.980469 600.363281 L 605.210938 600.363281 L 605.210938 688.226562 C 605.210938 693.597656 609.605469 697.988281 614.972656 697.988281 C 620.34375 697.988281 624.734375 693.597656 624.734375 688.226562 L 624.734375 600.363281 L 644.257812 600.363281 L 644.257812 688.226562 C 644.257812 693.597656 648.652344 697.988281 654.019531 697.988281 C 659.390625 697.988281 663.78125 693.597656 663.78125 688.226562 L 663.78125 600.363281 L 707.710938 600.363281 C 713.078125 600.363281 717.472656 595.972656 717.472656 590.601562 L 717.472656 571.078125 C 717.472656 554.96875 704.292969 541.789062 688.1875 541.789062 Z M 688.1875 541.789062 " fill-opacity="1" fill-rule="nonzero"/></g></svg>