<svg xmlns="http://www.w3.org/2000/svg" xmlns:xlink="http://www.w3.org/1999/xlink" width="1080" zoomAndPan="magnify" viewBox="0 0 810 809.999993" height="1080" preserveAspectRatio="xMidYMid meet" version="1.0"><defs><clipPath id="932b50da67"><path d="M 163 332 L 650.960938 332 L 650.960938 672.21875 L 163 672.21875 Z M 163 332 " clip-rule="nonzero"/></clipPath><clipPath id="109b4df13f"><path d="M 129.441406 198 L 258 198 L 258 327 L 129.441406 327 Z M 129.441406 198 " clip-rule="nonzero"/></clipPath><clipPath id="c707205c00"><path d="M 552.835938 209.78125 L 680.691406 209.78125 L 680.691406 316 L 552.835938 316 Z M 552.835938 209.78125 " clip-rule="nonzero"/></clipPath></defs><path fill="#212121" d="M 404.582031 199.472656 C 421.808594 199.472656 437.402344 206.457031 448.6875 217.746094 C 459.976562 229.035156 466.957031 244.628906 466.957031 261.855469 C 466.957031 279.410156 459.511719 299.414062 447.636719 314.335938 C 436.539062 328.269531 421.464844 338.042969 404.582031 338.042969 L 404.582031 321.167969 C 415.816406 321.167969 426.347656 314.035156 434.457031 303.855469 C 444.0625 291.789062 450.085938 275.773438 450.085938 261.855469 C 450.085938 249.292969 444.992188 237.910156 436.761719 229.675781 C 428.523438 221.441406 417.148438 216.34375 404.582031 216.34375 Z M 404.582031 338.042969 C 387.699219 338.042969 372.628906 328.269531 361.53125 314.335938 C 349.65625 299.414062 342.207031 279.410156 342.207031 261.855469 C 342.207031 244.628906 349.191406 229.035156 360.480469 217.746094 C 371.765625 206.457031 387.363281 199.472656 404.582031 199.472656 L 404.582031 216.34375 C 392.019531 216.34375 380.640625 221.441406 372.40625 229.675781 C 364.175781 237.910156 359.078125 249.292969 359.078125 261.855469 C 359.078125 275.773438 365.101562 291.789062 374.714844 303.855469 C 382.8125 314.035156 393.351562 321.167969 404.582031 321.167969 L 404.582031 338.042969 " fill-opacity="1" fill-rule="nonzero"/><path fill="#212121" d="M 451.578125 252.175781 C 456.234375 252.175781 460.011719 255.953125 460.011719 260.609375 C 460.011719 265.273438 456.234375 269.050781 451.578125 269.050781 C 445.375 269.050781 438.71875 268.648438 432.390625 267.488281 C 425.613281 266.25 419.3125 264.101562 414.410156 260.609375 C 401.121094 251.15625 395.890625 255.90625 390.621094 260.6875 C 381.773438 268.722656 372.867188 276.8125 353.730469 267.320312 C 349.558594 265.261719 347.847656 260.214844 349.902344 256.050781 C 351.960938 251.878906 357.007812 250.167969 361.171875 252.226562 C 370.046875 256.621094 374.679688 252.414062 379.289062 248.226562 C 389.59375 238.871094 399.820312 229.585938 424.164062 246.898438 C 426.871094 248.828125 430.875 250.109375 435.417969 250.945312 C 440.410156 251.855469 446.09375 252.175781 451.578125 252.175781 " fill-opacity="1" fill-rule="nonzero"/><g clip-path="url(#932b50da67)"><path fill="#212121" d="M 477.859375 534.480469 C 487.121094 542.175781 495.484375 548.898438 503.324219 555.199219 C 533.191406 579.203125 555.707031 597.300781 575.441406 626.023438 C 575.835938 626.601562 576.148438 627.214844 576.382812 627.839844 L 576.394531 627.839844 C 577.523438 630.84375 578.390625 635.144531 578.5 639.28125 C 578.59375 642.824219 578.140625 646.445312 576.871094 649.507812 C 574.707031 656.097656 570.496094 661.792969 565 665.832031 C 559.535156 669.84375 552.820312 672.21875 545.601562 672.21875 L 406.660156 672.21875 L 406.660156 655.34375 L 545.601562 655.34375 C 549.136719 655.34375 552.402344 654.195312 555.046875 652.253906 C 557.769531 650.257812 559.851562 647.40625 560.898438 644.105469 L 560.910156 644.113281 C 561.023438 643.75 561.160156 643.398438 561.328125 643.054688 C 561.636719 642.394531 561.734375 641.132812 561.691406 639.683594 C 561.648438 637.8125 561.339844 635.964844 560.921875 634.535156 C 542.824219 608.546875 521.265625 591.214844 492.78125 568.320312 C 483.65625 560.984375 473.847656 553.101562 463.648438 544.558594 L 463.660156 544.546875 C 461.542969 542.773438 460.34375 539.992188 460.714844 537.042969 C 461.171875 533.484375 462.917969 510.925781 464.648438 487.222656 C 466.5625 461.148438 468.433594 434.171875 468.570312 429.839844 L 468.574219 429.839844 C 468.59375 429.039062 468.730469 428.230469 469 427.429688 C 470.453125 423.023438 475.199219 420.640625 479.605469 422.09375 C 497.066406 427.882812 517.84375 425.765625 539.101562 419.363281 C 568.027344 410.652344 597.640625 393.984375 621.40625 378.140625 L 621.414062 378.140625 C 621.550781 378.050781 621.691406 377.960938 621.835938 377.875 C 629.445312 373.433594 632.878906 367.941406 633.199219 362.949219 C 633.339844 360.78125 632.929688 358.707031 632.058594 356.878906 C 631.171875 355.027344 629.78125 353.371094 627.992188 352.066406 C 623.796875 349.019531 617.402344 348.023438 609.738281 350.871094 L 609.738281 350.867188 C 599.484375 355.082031 588.90625 361.421875 578.238281 367.8125 C 542.160156 389.421875 505.160156 411.582031 459.375 372.765625 C 452.761719 367.15625 448.878906 364.4375 445.640625 363.496094 C 443.019531 362.738281 439.746094 363.058594 434.742188 363.773438 C 430.214844 366.109375 425.496094 367.972656 420.613281 369.277344 C 416.050781 370.496094 411.390625 371.21875 406.660156 371.386719 L 406.660156 354.492188 C 409.929688 354.34375 413.140625 353.832031 416.257812 352.996094 C 420.273438 351.925781 424.214844 350.3125 428.042969 348.234375 C 429.074219 347.671875 430.164062 347.351562 431.257812 347.25 C 439.074219 346.105469 444.167969 345.5625 450.324219 347.347656 C 456.210938 349.058594 461.761719 352.707031 470.25 359.90625 C 506.863281 390.953125 538.632812 371.929688 569.605469 353.378906 C 580.824219 346.65625 591.945312 339.996094 603.636719 335.21875 C 603.71875 335.183594 603.796875 335.152344 603.871094 335.125 L 603.871094 335.113281 C 617.464844 330.066406 629.5 332.332031 637.878906 338.421875 C 641.921875 341.363281 645.109375 345.222656 647.214844 349.625 C 649.332031 354.054688 650.335938 358.972656 650.003906 364.003906 C 649.339844 374.132812 643.472656 384.664062 630.628906 392.269531 C 605.8125 408.804688 574.730469 426.230469 543.914062 435.511719 C 523.574219 441.632812 503.292969 444.207031 484.78125 440.726562 C 484.054688 452.148438 482.761719 470.609375 481.457031 488.414062 C 480.074219 507.28125 478.660156 525.65625 477.859375 534.480469 Z M 406.660156 606.398438 L 406.660156 623.273438 L 460.851562 623.273438 C 465.515625 623.273438 469.289062 619.496094 469.289062 614.832031 C 469.289062 611.507812 467.367188 608.632812 464.570312 607.257812 L 409.382812 574.351562 L 408.992188 574.070312 C 408.128906 573.441406 407.367188 572.886719 406.660156 572.398438 L 406.660156 592.3125 L 430.28125 606.398438 Z M 406.660156 672.21875 L 398.277344 672.21875 C 382.625 672.21875 372.550781 663.550781 368.089844 652.449219 C 366.402344 648.253906 365.558594 643.757812 365.558594 639.304688 C 365.558594 634.859375 366.402344 630.363281 368.089844 626.167969 C 372.550781 615.066406 382.625 606.398438 398.277344 606.398438 L 406.660156 606.398438 L 406.660156 623.273438 L 398.277344 623.273438 C 390.617188 623.273438 385.777344 627.289062 383.707031 632.429688 C 382.859375 634.546875 382.429688 636.902344 382.429688 639.304688 C 382.429688 641.710938 382.859375 644.066406 383.707031 646.1875 C 385.777344 651.328125 390.617188 655.34375 398.277344 655.34375 L 406.660156 655.34375 Z M 406.660156 592.3125 L 406.660156 572.398438 C 404.140625 570.675781 402.328125 569.847656 399.234375 569.847656 C 396.023438 569.847656 394.101562 570.867188 390.453125 572.800781 C 389.820312 573.132812 389.117188 573.511719 388.464844 573.84375 L 388.460938 573.832031 L 318.339844 607.222656 C 314.140625 609.226562 312.355469 614.253906 314.351562 618.460938 C 315.804688 621.511719 318.859375 623.289062 322.03125 623.265625 L 346.636719 624.628906 C 345.097656 629.402344 344.460938 634.160156 344.597656 638.945312 C 344.726562 643.472656 345.546875 647.921875 346.945312 652.347656 L 247.21875 655.378906 C 242.703125 655.515625 239.152344 654.050781 236.636719 651.664062 C 233.648438 648.828125 231.898438 644.621094 231.554688 640.085938 C 231.101562 634.109375 232.941406 629.03125 236.015625 624.582031 C 239.511719 619.53125 244.640625 615.074219 250.042969 611.003906 C 272.195312 594.328125 282.746094 587.449219 304.042969 573.5625 C 313.3125 567.523438 324.5 560.234375 337.664062 551.503906 C 340.273438 549.777344 341.613281 546.839844 341.417969 543.921875 C 341.28125 519.90625 340.949219 511.320312 340.199219 491.625 C 339.695312 478.394531 339 460.1875 338.058594 429.839844 C 337.933594 425.199219 334.066406 421.535156 329.425781 421.664062 C 328.472656 421.691406 327.554688 421.875 326.710938 422.195312 C 306.5625 428.757812 283.648438 424.863281 260.753906 416.027344 C 236.898438 406.832031 212.945312 392.171875 191.902344 378.140625 C 191.710938 378.011719 191.507812 377.890625 191.308594 377.777344 C 183.816406 373.351562 180.433594 367.898438 180.113281 362.949219 C 179.96875 360.78125 180.382812 358.707031 181.257812 356.878906 C 182.144531 355.027344 183.527344 353.371094 185.324219 352.066406 C 189.511719 349.019531 195.914062 348.027344 203.582031 350.871094 L 203.648438 350.894531 C 213.632812 355.007812 223.75 360.863281 233.890625 366.726562 C 269.003906 387.046875 304.308594 407.472656 353.3125 373.222656 C 356.257812 371.167969 359.917969 369.238281 364.300781 367.597656 C 367.714844 366.316406 371.519531 365.222656 375.71875 364.398438 C 379.886719 366.457031 384.164062 368.105469 388.523438 369.273438 C 393.757812 370.667969 399.125 371.417969 404.582031 371.417969 C 405.273438 371.417969 405.964844 371.40625 406.660156 371.386719 L 406.660156 354.492188 C 405.964844 354.527344 405.28125 354.546875 404.582031 354.546875 C 400.570312 354.546875 396.660156 354 392.871094 352.988281 C 388.878906 351.917969 385.027344 350.363281 381.355469 348.386719 C 379.707031 347.40625 377.726562 346.976562 375.6875 347.308594 C 369.261719 348.359375 363.476562 349.921875 358.367188 351.84375 C 352.707031 353.96875 347.796875 356.578125 343.6875 359.449219 C 303.484375 387.550781 272.820312 369.804688 242.320312 352.160156 C 231.824219 346.089844 221.34375 340.023438 210.050781 335.371094 C 209.855469 335.28125 209.648438 335.195312 209.445312 335.113281 C 195.851562 330.066406 183.816406 332.332031 175.441406 338.421875 C 171.390625 341.363281 168.207031 345.222656 166.097656 349.625 C 163.980469 354.054688 162.980469 358.972656 163.304688 364.003906 C 163.96875 374.132812 169.839844 384.664062 182.683594 392.269531 C 204.394531 406.742188 229.253906 421.910156 254.691406 431.714844 C 277.222656 440.40625 300.101562 444.800781 321.582031 440.796875 C 322.375 465.503906 322.957031 480.757812 323.390625 492.21875 C 324.101562 510.804688 324.4375 519.53125 324.585938 539.96875 C 311.652344 548.527344 302.546875 554.46875 294.882812 559.457031 C 273.347656 573.5 262.675781 580.449219 239.960938 597.554688 C 233.3125 602.558594 226.898438 608.195312 222.179688 615.023438 C 217.035156 622.460938 213.96875 631.0625 214.753906 641.335938 C 215.398438 649.902344 218.933594 658.066406 225.039062 663.859375 C 230.664062 669.195312 238.292969 672.46875 247.675781 672.191406 L 359.3125 668.796875 C 360.695312 668.824219 362.105469 668.515625 363.414062 667.824219 C 367.527344 665.660156 369.105469 660.566406 366.945312 656.453125 C 363.621094 650.183594 361.566406 644.222656 361.402344 638.480469 C 361.246094 633.027344 362.835938 627.449219 366.742188 621.566406 C 367.546875 620.359375 368.042969 618.929688 368.128906 617.386719 C 368.386719 612.738281 364.828125 608.773438 360.1875 608.515625 L 355.40625 608.253906 L 395.714844 589.0625 L 395.703125 589.042969 C 395.78125 589.011719 395.863281 588.96875 395.941406 588.929688 C 396.960938 588.402344 397.664062 588.03125 398.292969 587.695312 C 398.582031 587.546875 398.730469 587.410156 398.808594 587.292969 L 398.917969 587.402344 C 398.929688 587.476562 398.988281 587.558594 399.105469 587.648438 L 399.542969 587.96875 C 399.855469 588.222656 400.1875 588.457031 400.535156 588.660156 L 406.660156 592.3125 " fill-opacity="1" fill-rule="nonzero"/></g><path fill="#212121" d="M 336.875 552.132812 C 332.21875 552.132812 328.441406 548.355469 328.441406 543.699219 C 328.441406 539.035156 332.21875 535.257812 336.875 535.257812 L 465.246094 535.257812 C 469.902344 535.257812 473.679688 539.035156 473.679688 543.699219 C 473.679688 548.355469 469.902344 552.132812 465.246094 552.132812 L 336.875 552.132812 " fill-opacity="1" fill-rule="nonzero"/><path fill="#212121" d="M 426.039062 379.304688 C 428.785156 380.75 429.832031 384.144531 428.390625 386.886719 C 426.949219 389.625 423.558594 390.679688 420.8125 389.238281 L 405.65625 381.214844 L 388.351562 390.371094 C 385.613281 391.8125 382.21875 390.757812 380.777344 388.019531 C 379.328125 385.277344 380.382812 381.882812 383.121094 380.4375 L 402.992188 369.925781 L 403.019531 369.910156 L 403.042969 369.898438 C 404.621094 369.066406 406.574219 369.003906 408.265625 369.898438 L 426.039062 379.304688 " fill-opacity="1" fill-rule="nonzero"/><path fill="#212121" d="M 396.148438 382.382812 C 396.148438 377.71875 399.925781 373.941406 404.582031 373.941406 C 409.246094 373.941406 413.019531 377.71875 413.019531 382.382812 L 413.019531 502.226562 L 404.582031 510.660156 L 396.148438 502.226562 L 396.148438 382.382812 " fill-opacity="1" fill-rule="nonzero"/><g clip-path="url(#109b4df13f)"><path fill="#212121" d="M 206.292969 215.8125 C 208.28125 216.351562 210.222656 217.015625 212.085938 217.785156 C 213.96875 218.566406 215.792969 219.453125 217.542969 220.449219 L 226.933594 212.957031 C 229.1875 211.160156 232.402344 211.382812 234.394531 213.382812 L 234.398438 213.375 L 242.683594 221.65625 C 244.789062 223.761719 244.875 227.125 242.941406 229.332031 L 235.828125 238.65625 C 236.851562 240.429688 237.761719 242.269531 238.550781 244.171875 C 239.316406 246.011719 239.976562 247.917969 240.519531 249.886719 L 252.417969 251.21875 C 255.296875 251.539062 257.417969 253.976562 257.417969 256.804688 L 257.429688 256.804688 L 257.429688 268.515625 C 257.429688 271.507812 255.085938 273.957031 252.132812 274.128906 L 240.570312 275.6875 C 240.027344 277.675781 239.371094 279.617188 238.597656 281.484375 C 237.820312 283.363281 236.925781 285.191406 235.929688 286.941406 L 243.425781 296.332031 C 245.214844 298.585938 244.992188 301.800781 243.003906 303.792969 L 243.007812 303.796875 L 234.722656 312.082031 C 232.621094 314.1875 229.261719 314.273438 227.054688 312.339844 L 217.734375 305.226562 C 215.9375 306.265625 214.078125 307.179688 212.160156 307.976562 C 210.28125 308.753906 208.316406 309.421875 206.292969 309.972656 L 204.683594 321.953125 C 204.308594 324.773438 201.894531 326.816406 199.125 326.816406 L 199.125 326.828125 L 193.488281 326.828125 L 193.488281 315.578125 L 194.222656 315.578125 L 195.695312 304.617188 L 195.703125 304.621094 C 196.015625 302.269531 197.808594 300.289062 200.269531 299.851562 C 202.863281 299.378906 205.410156 298.621094 207.859375 297.601562 C 210.28125 296.601562 212.554688 295.363281 214.65625 293.929688 C 216.617188 292.445312 219.398438 292.382812 221.445312 293.945312 L 230.238281 300.65625 L 231.507812 299.390625 L 224.679688 290.839844 L 224.683594 290.839844 C 223.1875 288.957031 223.027344 286.238281 224.460938 284.160156 C 225.949219 281.996094 227.21875 279.675781 228.226562 277.21875 C 229.199219 274.875 229.9375 272.425781 230.410156 269.902344 C 230.738281 267.453125 232.660156 265.433594 235.222656 265.089844 L 246.175781 263.613281 L 246.175781 261.824219 L 235.332031 260.605469 L 235.335938 260.597656 C 232.933594 260.335938 230.890625 258.53125 230.433594 256.03125 C 229.953125 253.441406 229.191406 250.90625 228.1875 248.472656 C 227.183594 246.074219 225.960938 243.816406 224.53125 241.726562 C 223.046875 239.769531 222.984375 236.984375 224.546875 234.941406 L 231.257812 226.140625 L 229.992188 224.875 L 221.441406 231.707031 L 221.433594 231.703125 C 219.554688 233.195312 216.847656 233.363281 214.765625 231.925781 C 212.601562 230.4375 210.28125 229.167969 207.824219 228.15625 C 205.484375 227.1875 203.03125 226.449219 200.507812 225.976562 C 198.066406 225.648438 196.039062 223.726562 195.695312 221.164062 L 194.222656 210.199219 L 193.488281 210.199219 L 193.488281 198.949219 L 199.125 198.949219 C 202.121094 198.949219 204.5625 201.289062 204.734375 204.242188 Z M 193.488281 326.828125 L 187.414062 326.828125 C 184.402344 326.828125 181.949219 324.464844 181.796875 321.496094 L 180.496094 309.914062 C 178.527344 309.375 176.625 308.71875 174.78125 307.953125 C 172.886719 307.164062 171.046875 306.253906 169.265625 305.226562 L 159.65625 312.5625 C 157.390625 314.292969 154.238281 314.035156 152.28125 312.070312 L 152.269531 312.082031 L 143.992188 303.796875 C 141.863281 301.667969 141.800781 298.257812 143.796875 296.050781 L 151.0625 286.941406 C 150.066406 285.191406 149.179688 283.363281 148.402344 281.484375 C 147.628906 279.617188 146.972656 277.675781 146.429688 275.6875 L 134.449219 274.078125 C 131.542969 273.683594 129.460938 271.136719 129.59375 268.265625 L 129.59375 256.804688 C 129.59375 253.914062 131.777344 251.539062 134.582031 251.238281 L 134.582031 251.21875 L 146.480469 249.886719 C 147.023438 247.917969 147.683594 246.011719 148.449219 244.171875 C 149.230469 242.277344 150.148438 240.433594 151.167969 238.65625 L 143.835938 229.042969 C 142.109375 226.777344 142.367188 223.625 144.328125 221.667969 L 144.316406 221.65625 L 152.601562 213.375 C 154.730469 211.246094 158.140625 211.179688 160.347656 213.179688 L 169.449219 220.449219 C 171.183594 219.46875 172.980469 218.585938 174.839844 217.816406 L 174.832031 217.808594 C 176.65625 217.046875 178.550781 216.402344 180.496094 215.863281 L 181.835938 203.957031 C 182.148438 201.085938 184.585938 198.957031 187.414062 198.960938 L 187.414062 198.949219 L 193.488281 198.949219 L 193.488281 210.199219 L 192.429688 210.199219 L 191.210938 221.054688 L 191.207031 221.046875 C 190.941406 223.453125 189.140625 225.496094 186.648438 225.953125 C 184.0625 226.425781 181.550781 227.183594 179.140625 228.175781 L 179.136719 228.171875 L 179.117188 228.175781 C 176.773438 229.152344 174.546875 230.359375 172.457031 231.769531 C 170.460938 233.296875 167.613281 233.339844 165.558594 231.707031 L 157 224.875 L 155.738281 226.140625 L 162.453125 234.941406 L 162.449219 234.941406 C 163.882812 236.816406 164.019531 239.476562 162.601562 241.53125 C 161.121094 243.679688 159.84375 246 158.816406 248.480469 C 157.84375 250.820312 157.097656 253.25 156.617188 255.75 C 156.292969 258.257812 154.289062 260.3125 151.667969 260.605469 L 140.800781 261.824219 L 140.800781 263.609375 L 151.777344 265.089844 L 151.777344 265.09375 C 154.125 265.410156 156.101562 267.199219 156.542969 269.65625 C 157.019531 272.269531 157.773438 274.800781 158.769531 277.21875 C 159.746094 279.589844 160.964844 281.835938 162.382812 283.933594 C 163.910156 285.929688 163.957031 288.785156 162.320312 290.839844 L 155.492188 299.390625 L 156.753906 300.65625 L 165.554688 293.945312 L 165.554688 293.949219 C 167.4375 292.515625 170.097656 292.378906 172.144531 293.789062 C 174.289062 295.277344 176.617188 296.554688 179.089844 297.578125 C 181.429688 298.558594 183.867188 299.292969 186.359375 299.777344 C 188.867188 300.101562 190.925781 302.105469 191.210938 304.730469 L 192.429688 315.578125 L 193.488281 315.578125 L 193.488281 326.828125 " fill-opacity="1" fill-rule="nonzero"/></g><path fill="#212121" d="M 193.5 242.042969 C 199.253906 242.042969 204.46875 244.375 208.238281 248.148438 C 212.007812 251.921875 214.339844 257.136719 214.339844 262.890625 C 214.339844 268.648438 212.011719 273.859375 208.238281 277.632812 C 204.46875 281.402344 199.253906 283.738281 193.5 283.738281 L 193.5 272.488281 C 196.148438 272.488281 198.550781 271.414062 200.285156 269.679688 C 202.023438 267.9375 203.09375 265.542969 203.09375 262.890625 C 203.09375 260.238281 202.023438 257.839844 200.285156 256.101562 C 198.550781 254.367188 196.148438 253.292969 193.5 253.292969 Z M 193.5 283.738281 C 187.746094 283.738281 182.535156 281.402344 178.761719 277.632812 C 174.988281 273.859375 172.652344 268.648438 172.652344 262.890625 C 172.652344 257.136719 174.988281 251.921875 178.761719 248.148438 C 182.535156 244.375 187.746094 242.042969 193.5 242.042969 L 193.5 253.292969 C 190.851562 253.292969 188.449219 254.367188 186.714844 256.101562 C 184.976562 257.839844 183.90625 260.238281 183.90625 262.890625 C 183.90625 265.542969 184.976562 267.9375 186.714844 269.679688 C 188.449219 271.414062 190.851562 272.488281 193.5 272.488281 L 193.5 283.738281 " fill-opacity="1" fill-rule="nonzero"/><g clip-path="url(#c707205c00)"><path fill="#212121" d="M 616.808594 226.054688 C 619.320312 222.253906 622.023438 219.113281 625.148438 216.613281 C 630.742188 212.132812 637.316406 209.894531 645.945312 209.894531 C 655.539062 209.894531 664.226562 213.792969 670.519531 220.082031 C 676.8125 226.375 680.703125 235.066406 680.703125 244.664062 C 680.703125 266.878906 666.777344 277.335938 648.207031 291.273438 C 639.789062 297.589844 630.3125 304.703125 620.785156 314.234375 C 619.683594 315.332031 618.242188 315.882812 616.808594 315.882812 L 616.808594 302.4375 C 625.355469 294.414062 633.839844 288.046875 641.488281 282.308594 C 657.472656 270.3125 669.457031 261.3125 669.457031 244.664062 C 669.457031 238.175781 666.824219 232.292969 662.566406 228.039062 C 658.3125 223.785156 652.429688 221.144531 645.945312 221.144531 C 640 221.144531 635.640625 222.554688 632.132812 225.355469 C 628.3125 228.417969 625.113281 233.289062 621.820312 239.878906 C 621.292969 240.933594 620.441406 241.824219 619.308594 242.390625 C 618.507812 242.792969 617.648438 242.980469 616.808594 242.980469 Z M 616.808594 315.882812 C 615.367188 315.882812 613.929688 315.332031 612.832031 314.234375 C 603.292969 304.703125 593.820312 297.589844 585.398438 291.273438 C 566.832031 277.335938 552.90625 266.878906 552.90625 244.664062 C 552.90625 235.066406 556.796875 226.375 563.089844 220.082031 C 569.382812 213.792969 578.070312 209.894531 587.664062 209.894531 C 596.292969 209.894531 602.867188 212.132812 608.460938 216.613281 C 611.585938 219.113281 614.289062 222.253906 616.808594 226.054688 L 616.808594 242.980469 C 614.753906 242.980469 612.773438 241.847656 611.796875 239.882812 C 608.5 233.289062 605.296875 228.417969 601.476562 225.355469 C 597.96875 222.554688 593.609375 221.144531 587.664062 221.144531 C 581.179688 221.144531 575.296875 223.785156 571.039062 228.035156 C 566.785156 232.292969 564.152344 238.175781 564.152344 244.664062 C 564.152344 261.3125 576.136719 270.3125 592.121094 282.308594 C 599.769531 288.046875 608.253906 294.414062 616.808594 302.4375 L 616.808594 315.882812 " fill-opacity="1" fill-rule="nonzero"/></g><path fill="#212121" d="M 400.921875 142.21875 C 400.921875 139.890625 402.808594 138 405.136719 138 C 407.464844 138 409.351562 139.890625 409.351562 142.21875 L 409.351562 165.828125 C 409.351562 168.160156 407.464844 170.050781 405.136719 170.050781 C 402.808594 170.050781 400.921875 168.160156 400.921875 165.828125 L 400.921875 142.21875 " fill-opacity="1" fill-rule="nonzero"/><path fill="#212121" d="M 449.582031 148.757812 C 450.371094 146.578125 452.785156 145.445312 454.964844 146.242188 C 457.148438 147.03125 458.277344 149.445312 457.488281 151.628906 L 449.4375 173.820312 C 448.644531 176.003906 446.234375 177.132812 444.050781 176.34375 C 441.863281 175.554688 440.738281 173.140625 441.527344 170.953125 L 449.582031 148.757812 " fill-opacity="1" fill-rule="nonzero"/><path fill="#212121" d="M 493.078125 171.496094 C 494.570312 169.710938 497.226562 169.476562 499.007812 170.96875 C 500.792969 172.464844 501.027344 175.117188 499.535156 176.902344 L 484.398438 195.019531 C 482.910156 196.804688 480.25 197.039062 478.472656 195.546875 C 476.6875 194.050781 476.453125 191.398438 477.941406 189.613281 L 493.078125 171.496094 " fill-opacity="1" fill-rule="nonzero"/><path fill="#212121" d="M 526.222656 207.714844 C 528.230469 206.550781 530.8125 207.234375 531.972656 209.25 C 533.132812 211.257812 532.449219 213.832031 530.441406 215 L 510.035156 226.867188 C 508.027344 228.027344 505.445312 227.34375 504.285156 225.332031 C 503.117188 223.320312 503.804688 220.746094 505.816406 219.582031 L 526.222656 207.714844 " fill-opacity="1" fill-rule="nonzero"/><path fill="#212121" d="M 279.753906 219.285156 C 277.722656 218.160156 276.988281 215.59375 278.121094 213.570312 C 279.25 211.539062 281.808594 210.804688 283.835938 211.9375 L 304.457031 223.421875 C 306.488281 224.554688 307.21875 227.113281 306.09375 229.144531 C 304.960938 231.171875 302.402344 231.902344 300.371094 230.777344 L 279.753906 219.285156 " fill-opacity="1" fill-rule="nonzero"/><path fill="#212121" d="M 309.148438 179.621094 C 307.625 177.867188 307.820312 175.210938 309.574219 173.695312 C 311.332031 172.171875 313.988281 172.359375 315.507812 174.125 L 330.976562 191.953125 C 332.492188 193.710938 332.300781 196.363281 330.546875 197.886719 C 328.792969 199.40625 326.132812 199.214844 324.617188 197.457031 L 309.148438 179.621094 " fill-opacity="1" fill-rule="nonzero"/><path fill="#212121" d="M 350.558594 153.671875 C 349.730469 151.503906 350.816406 149.078125 352.980469 148.25 C 355.148438 147.425781 357.574219 148.507812 358.402344 150.675781 L 366.859375 172.714844 C 367.6875 174.878906 366.605469 177.308594 364.4375 178.132812 C 362.277344 178.964844 359.84375 177.882812 359.015625 175.714844 L 350.558594 153.671875 " fill-opacity="1" fill-rule="nonzero"/></svg>