<svg xmlns="http://www.w3.org/2000/svg" xmlns:xlink="http://www.w3.org/1999/xlink" width="1080" zoomAndPan="magnify" viewBox="0 0 810 809.999993" height="1080" preserveAspectRatio="xMidYMid meet" version="1.0"><defs><clipPath id="573c31f65a"><path d="M 115.445312 434 L 695.277344 434 L 695.277344 729.074219 L 115.445312 729.074219 Z M 115.445312 434 " clip-rule="nonzero"/></clipPath><clipPath id="2dec2084b7"><path d="M 398 148.574219 L 418 148.574219 L 418 194 L 398 194 Z M 398 148.574219 " clip-rule="nonzero"/></clipPath></defs><g clip-path="url(#573c31f65a)"><path fill="#040606" d="M 629.050781 684.699219 L 629.050781 662.953125 C 629.050781 657.488281 625.394531 653.882812 619.980469 653.882812 C 614.519531 653.882812 610.910156 657.488281 610.910156 662.953125 L 610.910156 684.699219 L 525.773438 684.699219 C 514.902344 664.757812 499.542969 650.273438 484.132812 640.328125 C 501.347656 625.847656 520.363281 616.777344 531.238281 612.242188 C 537.578125 626.722656 555.664062 650.273438 568.34375 645.738281 C 584.679688 639.398438 593.699219 623.113281 598.234375 612.242188 C 617.25 619.507812 662.550781 642.132812 676.105469 685.628906 L 629.050781 685.628906 Z M 470.578125 710.054688 L 470.578125 688.308594 C 470.578125 682.898438 466.921875 679.289062 461.507812 679.289062 C 456.046875 679.289062 452.4375 682.898438 452.4375 688.308594 L 452.4375 710.054688 L 358.28125 710.054688 L 358.28125 688.308594 C 358.28125 682.898438 354.625 679.289062 349.210938 679.289062 C 343.75 679.289062 340.140625 682.898438 340.140625 688.308594 L 340.140625 710.054688 L 293.964844 710.054688 C 307.570312 666.558594 352.820312 644.8125 371.835938 636.71875 C 376.371094 646.667969 385.441406 662.953125 401.726562 669.292969 C 402.65625 669.292969 403.53125 670.21875 405.335938 670.21875 C 406.261719 670.21875 408.066406 670.21875 408.996094 669.292969 C 425.28125 662.953125 434.351562 646.667969 438.886719 636.71875 C 457.902344 643.933594 503.148438 666.558594 516.753906 710.054688 Z M 199.757812 684.699219 L 199.757812 662.953125 C 199.757812 657.488281 196.152344 653.882812 190.738281 653.882812 C 185.277344 653.882812 181.667969 657.488281 181.667969 662.953125 L 181.667969 684.699219 L 136.371094 684.699219 C 149.976562 641.253906 195.273438 619.507812 214.242188 611.3125 C 220.578125 626.722656 238.71875 649.347656 251.398438 644.8125 C 267.683594 638.523438 276.753906 622.1875 281.289062 611.3125 C 292.164062 615.847656 311.179688 624.917969 328.390625 639.398438 C 312.984375 650.273438 296.699219 664.757812 286.699219 683.773438 L 199.757812 683.773438 Z M 207.953125 520.765625 L 270.414062 520.765625 C 275.824219 520.765625 281.289062 519.886719 285.824219 518.085938 C 284.894531 520.765625 291.234375 555.191406 256.859375 576.9375 C 235.988281 590.492188 207.953125 554.261719 207.953125 526.175781 Z M 214.242188 457.375 C 222.433594 468.25 241.453125 482.730469 286.699219 482.730469 L 287.628906 482.730469 C 288.503906 485.460938 290.359375 489.070312 289.429688 491.800781 C 289.429688 492.730469 288.503906 495.410156 284.019531 499.066406 C 280.359375 500.871094 275.824219 502.675781 270.414062 502.675781 L 207.953125 502.675781 C 204.292969 499.945312 198.882812 492.730469 198.882812 484.535156 C 198.882812 475.515625 204.292969 466.445312 214.242188 457.375 Z M 227.847656 592.347656 C 233.257812 595.957031 240.523438 597.757812 246.863281 597.757812 C 253.203125 597.757812 259.539062 595.957031 265.878906 592.347656 L 265.878906 598.636719 C 265.003906 603.171875 259.539062 618.578125 246.863281 625.847656 C 235.113281 618.578125 229.648438 602.242188 227.847656 598.636719 Z M 366.425781 543.390625 C 370.910156 545.246094 376.371094 546.121094 381.835938 546.121094 L 444.296875 546.121094 L 444.296875 551.582031 C 444.296875 571.476562 433.421875 590.492188 415.332031 602.292969 C 408.996094 605.902344 401.726562 605.902344 395.390625 602.292969 C 377.300781 590.492188 366.425781 571.476562 366.425781 551.582031 Z M 364.621094 508.085938 C 410.796875 508.085938 429.816406 493.605469 437.957031 482.730469 C 447.902344 491.800781 453.367188 500.871094 453.367188 509.015625 C 453.367188 518.085938 447.027344 524.371094 444.296875 527.105469 L 381.785156 527.105469 C 376.371094 527.105469 371.835938 526.175781 368.230469 523.496094 C 363.695312 520.765625 362.765625 518.085938 362.765625 517.15625 C 361.890625 514.425781 362.765625 510.816406 364.621094 508.085938 Z M 386.320312 617.652344 C 391.78125 621.3125 398.121094 623.113281 405.335938 623.113281 C 411.675781 623.113281 418.011719 621.3125 424.351562 617.652344 L 424.351562 624.042969 C 423.476562 627.648438 418.011719 643.933594 405.335938 651.152344 C 393.585938 643.933594 388.121094 627.648438 386.320312 624.042969 Z M 524.898438 518.085938 C 537.578125 522.570312 543.914062 519.886719 602.769531 520.765625 C 602.769531 522.570312 607.304688 556.117188 573.804688 576.9375 C 567.46875 580.546875 560.199219 580.546875 553.863281 576.9375 C 519.4375 555.191406 524.898438 520.765625 524.898438 518.085938 Z M 523.09375 482.730469 C 569.269531 482.730469 588.289062 468.25 596.429688 457.375 C 606.375 466.445312 611.839844 475.515625 611.839844 483.660156 C 611.839844 492.730469 605.5 499.066406 602.769531 501.746094 C 570.199219 499.945312 507.683594 511.746094 523.09375 482.730469 Z M 544.792969 592.347656 C 550.253906 595.957031 556.59375 597.757812 563.808594 597.757812 C 570.148438 597.757812 576.484375 595.957031 582.824219 592.347656 L 582.824219 598.636719 C 581.949219 602.292969 576.484375 618.578125 563.808594 625.847656 C 552.058594 618.578125 546.648438 602.292969 544.792969 598.636719 Z M 600.964844 594.152344 L 600.964844 577.816406 C 627.25 548.851562 619.980469 518.085938 621.785156 509.015625 C 626.320312 503.550781 630.855469 495.410156 630.855469 484.585938 C 630.855469 468.25 619.980469 451.964844 599.160156 436.554688 C 593.699219 432.949219 585.554688 435.679688 584.679688 442.894531 C 584.679688 442.894531 579.21875 465.519531 524.898438 465.519531 L 519.488281 465.519531 C 509.488281 464.640625 502.273438 485.460938 504.078125 495.410156 C 504.953125 498.140625 505.882812 501.746094 507.683594 504.480469 C 509.488281 516.230469 500.417969 547.976562 528.507812 577.816406 L 528.507812 594.152344 C 516.753906 598.636719 490.472656 609.507812 468.722656 630.382812 C 458.777344 624.917969 449.707031 621.3125 443.367188 618.578125 L 443.367188 602.242188 C 456.046875 587.761719 464.242188 569.671875 464.242188 550.65625 L 464.242188 533.441406 C 468.722656 528.03125 473.257812 519.886719 473.257812 509.015625 C 473.257812 492.730469 462.386719 476.390625 441.566406 460.984375 C 438.886719 459.179688 436.152344 459.179688 432.546875 460.105469 C 429.816406 460.984375 427.082031 463.714844 427.082031 467.320312 C 427.082031 467.320312 422.546875 489.996094 367.351562 489.996094 L 361.890625 489.996094 C 359.160156 489.996094 356.480469 490.875 354.675781 493.605469 C 353.746094 494.480469 344.675781 507.160156 346.480469 520.765625 C 347.410156 523.496094 348.335938 527.105469 350.140625 529.835938 L 350.140625 551.53125 C 350.140625 570.546875 357.355469 588.6875 370.960938 603.171875 L 370.960938 619.507812 C 365.496094 621.3125 356.480469 625.847656 345.605469 631.257812 C 323.855469 610.4375 297.574219 599.5625 285.824219 595.027344 L 285.824219 578.742188 C 312.984375 548.851562 304.839844 517.15625 306.644531 505.355469 C 308.449219 501.746094 310.304688 499.066406 310.304688 496.335938 C 312.984375 482.730469 303.035156 470.980469 302.109375 469.125 C 300.304688 467.320312 297.574219 465.519531 294.894531 465.519531 C 235.113281 467.320312 228.773438 442.894531 228.773438 442.894531 C 227.847656 435.628906 219.703125 432.949219 214.292969 436.554688 C 193.472656 451.964844 182.597656 468.25 182.597656 484.585938 C 182.597656 494.480469 187.132812 502.675781 191.667969 509.015625 C 192.542969 518.085938 185.328125 548.851562 212.488281 577.816406 L 212.488281 594.152344 C 189.8125 601.367188 126.421875 629.453125 115.550781 692.84375 C 114.671875 698.304688 119.15625 703.71875 124.621094 703.71875 L 276.753906 703.71875 C 274.949219 708.253906 274.023438 712.789062 273.144531 718.199219 C 272.21875 723.660156 276.753906 729.074219 282.164062 729.074219 L 526.703125 729.074219 C 532.113281 729.074219 536.648438 723.660156 535.773438 718.199219 C 534.84375 712.789062 533.917969 708.253906 532.113281 703.71875 L 686.101562 703.71875 C 691.515625 703.71875 696.050781 698.304688 695.121094 692.84375 C 684.300781 629.453125 620.859375 601.367188 600.964844 594.152344 " fill-opacity="1" fill-rule="nonzero"/></g><path fill="#040606" d="M 405.335938 223.761719 L 407.140625 223.761719 C 446.101562 223.761719 477.792969 255.457031 477.792969 294.367188 C 477.792969 348.738281 435.226562 344.203125 428.011719 386.773438 L 387.246094 386.773438 C 384.515625 372.289062 377.300781 358.683594 364.621094 349.613281 C 346.480469 336.058594 336.535156 313.382812 337.460938 290.761719 C 339.265625 255.457031 370.03125 224.640625 405.335938 223.761719 Z M 424.351562 422.949219 L 390.855469 422.949219 L 388.121094 404.859375 L 426.15625 404.859375 Z M 352.820312 364.097656 C 372.765625 379.503906 367.300781 395.789062 373.691406 433.824219 C 374.566406 438.359375 378.175781 441.964844 382.710938 441.964844 L 432.546875 441.964844 C 437.03125 441.964844 440.6875 438.359375 441.566406 433.824219 C 447.902344 394.914062 443.367188 378.578125 461.507812 365.023438 C 484.132812 347.808594 496.8125 322.453125 496.8125 294.367188 C 496.8125 245.460938 456.972656 205.621094 408.066406 205.621094 L 405.335938 205.621094 C 359.160156 207.425781 322.054688 243.65625 319.320312 289.832031 C 318.445312 318.847656 331.125 346.007812 352.820312 364.097656 " fill-opacity="1" fill-rule="nonzero"/><path fill="#040606" d="M 413.53125 269.941406 C 429.816406 274.421875 437.03125 294.367188 428.011719 307.972656 C 425.28125 312.507812 426.207031 317.917969 430.691406 320.652344 C 435.226562 323.332031 440.6875 322.453125 443.367188 317.917969 C 458.777344 293.441406 446.101562 259.941406 418.011719 252.726562 C 413.53125 250.921875 408.066406 254.53125 407.191406 259.066406 C 406.261719 263.601562 408.996094 269.011719 413.53125 269.941406 " fill-opacity="1" fill-rule="nonzero"/><g clip-path="url(#2dec2084b7)"><path fill="#040606" d="M 408.066406 193.871094 C 413.53125 193.871094 417.136719 190.214844 417.136719 184.800781 L 417.136719 157.644531 C 417.136719 152.179688 413.53125 148.574219 408.066406 148.574219 C 402.65625 148.574219 398.996094 152.179688 398.996094 157.644531 L 398.996094 184.800781 C 398.996094 190.214844 402.65625 193.871094 408.066406 193.871094 " fill-opacity="1" fill-rule="nonzero"/></g><path fill="#040606" d="M 455.171875 202.890625 C 459.707031 204.746094 465.117188 202.890625 466.921875 198.40625 L 477.792969 173 C 479.597656 168.515625 477.792969 163.054688 473.257812 161.25 C 468.722656 159.445312 463.3125 161.25 461.507812 165.785156 L 450.636719 191.140625 C 448.832031 195.675781 450.636719 201.085938 455.171875 202.890625 " fill-opacity="1" fill-rule="nonzero"/><path fill="#040606" d="M 351.945312 197.480469 C 353.746094 202.015625 359.160156 204.746094 363.695312 202.015625 C 369.15625 201.085938 370.960938 195.675781 369.15625 191.140625 L 359.160156 165.785156 C 357.355469 161.25 351.945312 158.519531 347.410156 161.25 C 341.945312 163.054688 340.140625 167.589844 341.945312 173 L 351.945312 197.480469 " fill-opacity="1" fill-rule="nonzero"/><path fill="#040606" d="M 537.578125 297.097656 L 667.960938 297.097656 L 667.960938 377.703125 L 600.039062 377.703125 C 598.234375 377.703125 596.429688 378.578125 594.625 379.503906 L 571.074219 396.71875 L 571.074219 386.71875 C 571.074219 381.308594 567.46875 377.703125 562.003906 377.703125 L 536.648438 377.703125 L 536.648438 297.097656 Z M 537.578125 395.789062 L 553.863281 395.789062 L 553.863281 414.808594 C 553.863281 422.074219 562.003906 426.609375 568.34375 422.074219 L 603.695312 395.789062 L 667.960938 395.789062 C 677.960938 395.789062 686.101562 387.648438 686.101562 377.703125 L 686.101562 297.097656 C 686.101562 287.152344 677.960938 278.957031 667.960938 278.957031 L 537.578125 278.957031 C 527.628906 278.957031 519.488281 287.152344 519.488281 297.097656 L 519.488281 377.703125 C 519.488281 387.648438 527.628906 395.789062 537.578125 395.789062 " fill-opacity="1" fill-rule="nonzero"/><path fill="#040606" d="M 571.074219 327.867188 L 589.164062 327.867188 L 589.164062 346.007812 L 571.074219 346.007812 L 571.074219 327.867188 " fill-opacity="1" fill-rule="nonzero"/><path fill="#040606" d="M 616.375 327.867188 L 634.464844 327.867188 L 634.464844 346.007812 L 616.375 346.007812 L 616.375 327.867188 " fill-opacity="1" fill-rule="nonzero"/><path fill="#040606" d="M 147.242188 297.097656 L 278.558594 297.097656 L 278.558594 377.703125 L 253.203125 377.703125 C 247.789062 377.703125 244.183594 381.308594 244.183594 386.71875 L 244.183594 396.71875 L 220.628906 379.503906 C 218.777344 378.578125 216.972656 377.703125 215.167969 377.703125 L 147.242188 377.703125 Z M 147.242188 395.789062 L 211.558594 395.789062 L 246.863281 422.074219 C 253.203125 426.609375 261.34375 422.074219 261.34375 414.808594 L 261.34375 395.789062 L 278.558594 395.789062 C 288.503906 395.789062 296.699219 387.648438 296.699219 377.703125 L 296.699219 297.097656 C 296.699219 287.152344 288.503906 278.957031 278.558594 278.957031 L 147.242188 278.957031 C 137.296875 278.957031 129.15625 287.152344 129.15625 297.097656 L 129.15625 377.703125 C 129.15625 387.648438 137.296875 395.789062 147.242188 395.789062 " fill-opacity="1" fill-rule="nonzero"/><path fill="#040606" d="M 226.042969 327.867188 L 244.183594 327.867188 L 244.183594 346.007812 L 226.042969 346.007812 L 226.042969 327.867188 " fill-opacity="1" fill-rule="nonzero"/><path fill="#040606" d="M 180.742188 327.867188 L 198.882812 327.867188 L 198.882812 346.007812 L 180.742188 346.007812 L 180.742188 327.867188 " fill-opacity="1" fill-rule="nonzero"/></svg>