<svg xmlns="http://www.w3.org/2000/svg" xmlns:xlink="http://www.w3.org/1999/xlink" width="1080" zoomAndPan="magnify" viewBox="0 0 810 809.999993" height="1080" preserveAspectRatio="xMidYMid meet" version="1.0"><defs><clipPath id="18a60d5ce4"><path d="M 81 79.691406 L 730.5 79.691406 L 730.5 729 L 81 729 Z M 81 79.691406 " clip-rule="nonzero"/></clipPath></defs><g clip-path="url(#18a60d5ce4)"><path fill="#000000" d="M 344.867188 79.28125 C 339.550781 79.28125 335.027344 81.179688 331.058594 82.804688 C 327.089844 84.460938 323.984375 86.082031 323.984375 86.082031 C 321.738281 87.257812 320.359375 89.570312 320.359375 92.089844 L 320.359375 203.824219 C 320.359375 246.765625 355.152344 281.527344 398.09375 281.527344 C 441.070312 281.527344 475.828125 246.765625 475.828125 203.824219 L 475.828125 92.089844 C 475.828125 89.570312 474.449219 87.257812 472.203125 86.082031 C 472.203125 86.082031 469.097656 84.460938 465.128906 82.804688 C 461.160156 81.179688 456.636719 79.28125 451.320312 79.28125 C 446.039062 79.28125 442.175781 81.5625 439.308594 83.078125 C 436.445312 84.597656 434.546875 85.324219 433.578125 85.324219 C 432.648438 85.324219 430.714844 84.5625 427.847656 83.078125 C 424.984375 81.5625 421.152344 79.28125 415.835938 79.28125 C 410.554688 79.28125 406.6875 81.5625 403.824219 83.078125 C 400.957031 84.597656 399.058594 85.324219 398.09375 85.324219 C 397.160156 85.324219 395.261719 84.5625 392.363281 83.078125 C 389.5 81.5625 385.667969 79.28125 380.351562 79.28125 C 375.070312 79.28125 371.203125 81.5625 368.339844 83.078125 C 365.472656 84.597656 363.574219 85.324219 362.609375 85.324219 C 361.675781 85.324219 359.742188 84.5625 356.878906 83.078125 C 354.015625 81.5625 350.183594 79.28125 344.867188 79.28125 Z M 344.867188 92.8125 C 345.796875 92.8125 347.730469 93.609375 350.597656 95.058594 C 353.460938 96.578125 357.292969 98.855469 362.609375 98.855469 C 367.925781 98.855469 371.757812 96.578125 374.621094 95.058594 C 377.484375 93.574219 379.417969 92.8125 380.351562 92.8125 C 381.285156 92.8125 383.214844 93.609375 386.082031 95.058594 C 388.945312 96.578125 392.8125 98.855469 398.09375 98.855469 C 403.410156 98.855469 407.242188 96.578125 410.105469 95.058594 C 412.972656 93.574219 414.90625 92.8125 415.835938 92.8125 C 416.769531 92.8125 418.703125 93.609375 421.566406 95.058594 C 424.429688 96.578125 428.296875 98.855469 433.578125 98.855469 C 438.894531 98.855469 442.726562 96.578125 445.589844 95.058594 C 448.457031 93.574219 450.390625 92.8125 451.320312 92.8125 C 452.289062 92.8125 456.636719 93.953125 459.949219 95.335938 C 461.261719 95.851562 461.332031 95.921875 462.296875 96.402344 L 462.296875 145.246094 C 455.152344 144.144531 448.734375 140.761719 443.660156 135.6875 C 442 133.027344 438.722656 131.855469 435.753906 132.855469 C 434.199219 133.339844 432.886719 134.339844 432.027344 135.722656 C 423.050781 145.9375 411.175781 151.980469 398.09375 151.980469 C 385.011719 151.980469 373.136719 145.972656 364.164062 135.722656 C 362.988281 133.820312 360.917969 132.648438 358.671875 132.546875 C 358.570312 132.546875 358.464844 132.546875 358.328125 132.546875 C 358.292969 132.546875 358.226562 132.546875 358.15625 132.546875 C 358.15625 132.546875 358.121094 132.546875 358.085938 132.546875 C 358.019531 132.578125 357.984375 132.578125 357.914062 132.578125 C 355.878906 132.683594 353.980469 133.71875 352.769531 135.410156 C 347.664062 140.621094 341.136719 144.109375 333.855469 145.246094 L 333.855469 96.402344 C 334.820312 95.957031 334.890625 95.886719 336.203125 95.335938 C 339.550781 93.953125 343.898438 92.8125 344.832031 92.8125 Z M 358.050781 148.871094 C 368.820312 159.160156 382.800781 165.511719 398.09375 165.511719 C 413.386719 165.511719 427.367188 159.160156 438.167969 148.871094 C 445.003906 154.292969 453.289062 157.882812 462.296875 158.882812 L 462.296875 203.859375 C 462.296875 239.519531 433.785156 267.996094 398.09375 267.996094 C 362.402344 267.996094 333.890625 239.519531 333.890625 203.859375 L 333.890625 158.882812 C 342.898438 157.882812 351.21875 154.292969 358.050781 148.871094 Z M 662.539062 197.820312 C 661.746094 197.820312 660.953125 197.921875 660.191406 198.164062 L 607.792969 207.105469 C 604.03125 207.621094 601.441406 211.179688 602.0625 214.941406 C 602.71875 218.703125 606.308594 221.1875 610.070312 220.429688 L 647.109375 214.113281 C 625.605469 242.796875 602.027344 269.03125 576.796875 292.8125 C 563.472656 305.34375 549.664062 317.183594 535.476562 328.332031 C 525.949219 303.34375 500.0625 286.394531 473.136719 288.085938 L 431.578125 288.085938 C 428.609375 288.085938 426.019531 289.984375 425.121094 292.8125 C 420.21875 308.246094 399.40625 316.460938 385.253906 308.726562 C 385.183594 308.691406 385.113281 308.691406 385.082031 308.660156 C 378.660156 305.414062 373.414062 299.476562 371.066406 292.675781 C 370.097656 289.914062 367.476562 288.085938 364.542969 288.121094 C 355.808594 288.292969 346.9375 288.085938 337.960938 288.050781 L 341.171875 284.839844 C 343.832031 282.183594 343.832031 277.902344 341.171875 275.277344 L 320.253906 254.359375 C 317.632812 251.738281 313.351562 251.738281 310.691406 254.359375 L 300.511719 264.542969 C 295.503906 261.78125 290.257812 259.574219 284.769531 257.984375 L 284.769531 243.625 C 284.769531 239.898438 281.730469 236.859375 278.003906 236.859375 L 248.421875 236.859375 C 244.695312 236.859375 241.65625 239.898438 241.65625 243.625 L 241.65625 258.019531 C 236.167969 259.609375 230.886719 261.78125 225.882812 264.507812 L 215.699219 254.359375 C 213.074219 251.703125 208.792969 251.703125 206.136719 254.359375 L 185.253906 275.246094 C 182.59375 277.902344 182.59375 282.183594 185.253906 284.839844 L 195.4375 294.988281 C 192.675781 300.027344 190.464844 305.277344 188.878906 310.765625 L 174.484375 310.765625 C 170.753906 310.765625 167.71875 313.765625 167.71875 317.53125 L 167.71875 347.078125 C 167.71875 350.804688 170.753906 353.84375 174.484375 353.84375 L 188.910156 353.84375 C 190.5 359.332031 192.640625 364.613281 195.402344 369.617188 L 185.253906 379.765625 C 182.59375 382.425781 182.59375 386.703125 185.253906 389.328125 L 206.136719 410.246094 C 208.792969 412.871094 213.074219 412.871094 215.699219 410.246094 L 225.882812 400.0625 C 230.886719 402.824219 236.167969 405 241.65625 406.585938 L 241.65625 420.980469 C 241.65625 424.710938 244.695312 427.746094 248.421875 427.746094 L 256.5 427.746094 L 256.5 449.769531 C 223.015625 454.980469 189.117188 457.398438 155.222656 456.847656 C 151.425781 456.671875 148.214844 459.675781 148.144531 463.472656 C 148.078125 467.269531 151.148438 470.378906 154.945312 470.378906 C 193.984375 470.964844 233.027344 467.824219 271.445312 460.988281 C 309.898438 454.121094 347.730469 443.589844 384.390625 429.507812 C 421.082031 415.390625 456.601562 397.714844 490.429688 376.523438 C 524.222656 355.363281 556.292969 330.714844 586.046875 302.6875 C 612.039062 278.246094 636.304688 251.21875 658.398438 221.671875 L 664.714844 259.261719 C 665.265625 263.023438 668.789062 265.578125 672.550781 264.957031 C 676.277344 264.335938 678.765625 260.746094 678.074219 257.019531 L 669.269531 204.792969 C 669.304688 202.960938 668.613281 201.203125 667.339844 199.925781 C 667.339844 199.925781 667.339844 199.925781 667.304688 199.925781 C 666.371094 198.957031 665.164062 198.304688 663.851562 197.992188 C 663.78125 197.992188 663.679688 197.957031 663.609375 197.957031 C 663.230469 197.886719 662.886719 197.886719 662.503906 197.886719 Z M 385.082031 230.09375 C 378.316406 230.164062 375.828125 239 381.523438 242.589844 C 386.425781 245.765625 392.121094 247.664062 398.09375 247.664062 C 404.066406 247.664062 409.761719 245.765625 414.664062 242.589844 C 417.839844 240.589844 418.734375 236.375 416.699219 233.199219 C 414.664062 230.058594 410.453125 229.195312 407.308594 231.234375 C 404.308594 233.199219 401.304688 234.132812 398.09375 234.132812 C 394.917969 234.132812 391.914062 233.199219 388.910156 231.234375 C 387.773438 230.472656 386.425781 230.09375 385.082031 230.09375 Z M 255.152344 250.355469 L 271.203125 250.355469 L 271.203125 262.921875 C 271.203125 266.132812 273.414062 268.894531 276.554688 269.550781 C 284.21875 271.207031 291.5 274.242188 298.058594 278.488281 C 300.75 280.25 304.273438 279.871094 306.550781 277.589844 L 315.457031 268.6875 L 326.777344 280.042969 L 318.496094 288.328125 C 315.871094 288.394531 313.246094 288.601562 310.589844 288.777344 C 310.484375 288.777344 310.382812 288.808594 310.246094 288.808594 C 302.960938 289.777344 296.089844 292.089844 289.808594 295.472656 C 289.394531 295.230469 289.050781 294.886719 288.601562 294.609375 C 287.394531 293.851562 286.148438 293.023438 284.875 292.332031 L 284.839844 292.332031 C 283.5625 291.640625 282.25 291.019531 280.867188 290.433594 C 279.523438 289.847656 278.140625 289.363281 276.691406 288.914062 C 275.277344 288.464844 273.828125 288.121094 272.34375 287.773438 C 270.859375 287.429688 269.375 287.292969 267.855469 287.117188 C 266.335938 286.910156 264.75 286.84375 263.195312 286.84375 C 238.203125 286.84375 217.804688 307.277344 217.804688 332.269531 C 217.804688 354.980469 234.648438 373.933594 256.5 377.175781 L 256.5 414.179688 L 255.1875 414.179688 L 255.1875 401.617188 C 255.1875 398.441406 252.945312 395.679688 249.835938 394.988281 C 242.171875 393.367188 234.890625 390.328125 228.332031 386.050781 C 225.640625 384.324219 222.117188 384.703125 219.839844 386.945312 L 210.933594 395.851562 L 199.578125 384.53125 L 208.449219 375.660156 C 210.726562 373.378906 211.105469 369.859375 209.347656 367.203125 C 205.101562 360.609375 202.132812 353.289062 200.511719 345.628906 C 199.855469 342.519531 197.09375 340.277344 193.882812 340.277344 L 181.25 340.277344 L 181.25 324.261719 L 193.8125 324.261719 C 197.023438 324.261719 199.785156 322.015625 200.441406 318.910156 C 202.097656 311.246094 205.101562 303.964844 209.382812 297.40625 C 211.140625 294.714844 210.761719 291.15625 208.519531 288.914062 L 199.578125 280.007812 L 210.933594 268.6875 L 219.804688 277.558594 C 222.050781 279.800781 225.570312 280.179688 228.261719 278.453125 C 234.820312 274.207031 242.140625 271.207031 249.800781 269.582031 C 252.945312 268.925781 255.1875 266.167969 255.1875 262.957031 Z M 263.160156 300.410156 C 264.265625 300.410156 265.371094 300.441406 266.441406 300.582031 C 267.511719 300.648438 268.582031 300.824219 269.617188 301.097656 C 270.652344 301.269531 271.652344 301.511719 272.652344 301.859375 C 273.65625 302.203125 274.621094 302.546875 275.585938 302.929688 C 276.347656 303.273438 277.070312 303.617188 277.796875 304 C 263.988281 316.320312 255.53125 334.582031 256.464844 353.671875 L 256.464844 363.507812 C 242.035156 360.46875 231.300781 347.734375 231.300781 332.339844 C 231.300781 314.628906 245.488281 300.441406 263.160156 300.441406 Z M 475.761719 301.511719 C 497.128906 301.097656 518.253906 316.460938 524.121094 337.066406 C 510.832031 346.972656 497.195312 356.328125 483.25 365.0625 C 458.019531 380.835938 431.820312 394.644531 404.859375 406.449219 L 404.859375 324.605469 C 417.597656 322.191406 429.230469 313.835938 435.167969 301.652344 L 473.171875 301.652344 C 473.308594 301.652344 473.449219 301.652344 473.621094 301.617188 C 474.277344 301.582031 475.035156 301.546875 475.726562 301.546875 Z M 336.097656 301.617188 C 344.28125 301.617188 352.5625 301.789062 360.917969 301.6875 C 364.921875 309.660156 370.859375 316.5625 378.832031 320.636719 C 382.835938 322.8125 387.046875 324.191406 391.328125 324.847656 L 391.328125 412.179688 C 387.425781 413.765625 383.492188 415.320312 379.558594 416.839844 C 343.96875 430.542969 307.277344 440.761719 269.996094 447.457031 L 269.996094 372.378906 C 270.238281 371.414062 270.238281 370.410156 269.996094 369.445312 L 269.996094 353.601562 C 269.996094 353.464844 269.996094 353.359375 269.996094 353.257812 C 268.648438 329.195312 288.082031 305.484375 311.867188 302.308594 C 319.804688 301.6875 327.882812 301.617188 336.097656 301.617188 Z M 560.882812 390.46875 C 557.15625 390.46875 554.117188 393.503906 554.117188 397.234375 L 554.117188 715.183594 L 527.054688 715.183594 L 527.054688 464.890625 C 527.054688 461.125 524.050781 458.125 520.289062 458.125 L 425.605469 458.125 C 421.84375 458.125 418.839844 461.125 418.839844 464.890625 L 418.839844 715.183594 L 391.777344 715.183594 L 391.777344 532.546875 C 391.777344 528.78125 388.738281 525.746094 385.011719 525.746094 L 290.292969 525.746094 C 286.566406 525.746094 283.527344 528.78125 283.527344 532.546875 L 283.527344 715.183594 L 256.464844 715.183594 L 256.464844 600.167969 C 256.464844 596.4375 253.460938 593.402344 249.734375 593.402344 L 155.015625 593.402344 C 151.285156 593.402344 148.25 596.4375 148.25 600.167969 L 148.25 715.183594 L 87.53125 715.183594 C 83.734375 715.042969 80.558594 718.117188 80.558594 721.949219 C 80.558594 725.746094 83.734375 728.816406 87.53125 728.714844 L 723.085938 728.714844 C 726.882812 728.816406 730.058594 725.746094 730.058594 721.949219 C 730.058594 718.117188 726.882812 715.042969 723.085938 715.183594 L 662.367188 715.183594 L 662.367188 397.234375 C 662.367188 393.503906 659.328125 390.46875 655.601562 390.46875 Z M 567.648438 404 L 648.835938 404 L 648.835938 715.183594 L 567.648438 715.183594 Z M 432.371094 471.65625 L 513.558594 471.65625 L 513.558594 715.183594 L 432.371094 715.183594 Z M 297.058594 539.277344 L 378.246094 539.277344 L 378.246094 715.183594 L 297.058594 715.183594 Z M 161.78125 606.933594 L 242.96875 606.933594 L 242.96875 715.183594 L 161.78125 715.183594 Z M 161.78125 606.933594 " fill-opacity="1" fill-rule="nonzero"/></g></svg>