<svg xmlns="http://www.w3.org/2000/svg" xmlns:xlink="http://www.w3.org/1999/xlink" width="1080" zoomAndPan="magnify" viewBox="0 0 810 809.999993" height="1080" preserveAspectRatio="xMidYMid meet" version="1.0"><defs><clipPath id="a44785c6d0"><path d="M 332 181.515625 L 443 181.515625 L 443 292 L 332 292 Z M 332 181.515625 " clip-rule="nonzero"/></clipPath><clipPath id="133064264d"><path d="M 307.4375 306.472656 L 467.820312 306.472656 L 467.820312 628.496094 L 307.4375 628.496094 Z M 307.4375 306.472656 " clip-rule="nonzero"/></clipPath><clipPath id="059117a194"><path d="M 563.34375 342.417969 L 743.628906 342.417969 L 743.628906 528.949219 L 563.34375 528.949219 Z M 563.34375 342.417969 " clip-rule="nonzero"/></clipPath></defs><path fill="#2e2a2b" d="M 564.769531 423.195312 L 570.382812 419.867188 L 586.054688 410.605469 C 589.3125 408.675781 590.863281 404.789062 589.835938 401.152344 L 586.074219 387.882812 C 586.710938 387.148438 587.347656 386.386719 587.964844 385.621094 C 589.71875 383.480469 591.296875 381.339844 592.660156 379.25 L 606.328125 379.15625 C 607.582031 379.144531 608.78125 378.863281 609.90625 378.320312 C 611.207031 377.6875 612.328125 376.722656 613.144531 375.535156 C 613.699219 374.726562 614.101562 373.839844 614.347656 372.886719 L 620.480469 348.992188 C 621.417969 345.332031 619.773438 341.484375 616.476562 339.644531 L 604.4375 332.925781 C 604.1875 329.34375 603.679688 325.753906 602.921875 322.25 L 612.609375 312.429688 C 615.265625 309.734375 615.773438 305.582031 613.851562 302.328125 L 601.3125 281.109375 L 601.285156 281.066406 C 600.398438 279.585938 599.09375 278.433594 597.515625 277.734375 C 595.734375 276.929688 593.710938 276.78125 591.824219 277.320312 L 578.5625 281.089844 C 575.859375 278.746094 572.964844 276.570312 569.949219 274.628906 L 569.855469 260.828125 C 569.832031 257.046875 567.257812 253.753906 563.597656 252.816406 L 539.726562 246.707031 C 537.828125 246.21875 535.804688 246.421875 534.027344 247.28125 C 532.484375 248.035156 531.222656 249.222656 530.386719 250.726562 L 523.667969 262.78125 C 520.085938 263.035156 516.5 263.546875 513 264.304688 L 503.191406 254.625 C 500.6875 252.152344 496.878906 251.527344 493.714844 253.058594 C 493.507812 253.160156 493.304688 253.269531 493.101562 253.390625 L 471.894531 265.960938 L 471.84375 265.992188 C 468.625 267.929688 467.089844 271.804688 468.113281 275.414062 L 470.753906 284.730469 C 471.535156 287.667969 474.304688 289.570312 477.335938 289.25 C 478.050781 289.179688 478.738281 288.980469 479.378906 288.667969 C 481.707031 287.539062 483.09375 285.054688 482.828125 282.484375 C 482.800781 282.25 482.765625 282.015625 482.710938 281.773438 C 482.699219 281.730469 482.691406 281.683594 482.679688 281.640625 C 482.648438 281.511719 482.613281 281.382812 482.574219 281.261719 L 480.816406 275.007812 L 496.722656 265.578125 L 506.777344 275.5 C 508.320312 277.027344 510.585938 277.628906 512.6875 277.066406 C 512.722656 277.058594 512.765625 277.046875 512.804688 277.039062 C 517.589844 275.765625 522.539062 275.0625 527.515625 274.949219 C 528.40625 274.929688 529.261719 274.71875 530.0625 274.332031 C 531.207031 273.777344 532.140625 272.894531 532.761719 271.785156 L 539.652344 259.421875 L 557.546875 264.007812 L 557.636719 278.152344 C 557.652344 280.332031 558.832031 282.359375 560.71875 283.453125 C 565.054688 285.957031 569.078125 288.980469 572.6875 292.429688 C 574.261719 293.933594 576.546875 294.5 578.632812 293.898438 L 585.449219 291.957031 C 585.511719 291.945312 585.574219 291.933594 585.628906 291.917969 C 585.761719 291.886719 585.898438 291.847656 586.019531 291.808594 L 592.234375 290.054688 L 601.632812 306 L 591.742188 316.03125 C 590.214844 317.582031 589.613281 319.851562 590.171875 321.957031 C 591.457031 326.78125 592.164062 331.769531 592.273438 336.785156 C 592.324219 338.964844 593.53125 340.976562 595.429688 342.035156 L 607.773438 348.921875 L 603.175781 366.835938 L 591.652344 366.917969 C 591.214844 366.863281 590.769531 366.851562 590.34375 366.890625 L 588.988281 366.921875 C 588.089844 366.929688 587.183594 367.140625 586.363281 367.535156 C 585.253906 368.078125 584.339844 368.929688 583.710938 370.003906 C 581.207031 374.34375 578.1875 378.378906 574.734375 381.992188 C 573.230469 383.570312 572.667969 385.847656 573.257812 387.941406 L 577.117188 401.542969 L 566.667969 407.734375 L 561.203125 410.964844 L 551.15625 401.046875 C 549.609375 399.519531 547.347656 398.917969 545.246094 399.476562 C 545.210938 399.488281 545.171875 399.496094 545.136719 399.507812 C 540.339844 400.78125 535.390625 401.484375 530.421875 401.597656 C 529.527344 401.617188 528.671875 401.824219 527.871094 402.214844 C 526.726562 402.769531 525.792969 403.652344 525.171875 404.761719 L 518.285156 417.125 L 500.386719 412.539062 L 500.339844 405.882812 C 500.375 405.496094 500.371094 405.109375 500.328125 404.726562 C 500.164062 403.089844 499.367188 401.617188 498.085938 400.582031 C 496.808594 399.542969 495.203125 399.066406 493.570312 399.234375 C 492.859375 399.308594 492.167969 399.507812 491.523438 399.820312 C 489.253906 400.917969 487.867188 403.347656 488.066406 405.835938 L 488.078125 415.703125 C 488.105469 419.492188 490.675781 422.792969 494.335938 423.730469 L 518.207031 429.84375 C 519.164062 430.085938 520.148438 430.160156 521.132812 430.058594 C 522.097656 429.957031 523.027344 429.691406 523.902344 429.265625 C 525.449219 428.515625 526.710938 427.324219 527.546875 425.824219 L 534.269531 413.765625 C 537.847656 413.511719 541.433594 413 544.933594 412.242188 L 554.742188 421.925781 C 556.863281 424.019531 559.921875 424.789062 562.726562 424.042969 C 563.238281 423.90625 563.734375 423.722656 564.21875 423.488281 C 564.402344 423.398438 564.59375 423.296875 564.769531 423.195312 " fill-opacity="1" fill-rule="nonzero"/><path fill="#2e2a2b" d="M 541.164062 481.929688 L 532.789062 478.820312 C 532.300781 476.800781 531.683594 474.792969 530.96875 472.84375 L 536.191406 465.601562 C 536.96875 464.519531 537.4375 463.246094 537.542969 461.917969 C 537.691406 460.023438 537.109375 458.175781 535.90625 456.714844 L 524.890625 443.308594 C 522.792969 440.753906 519.230469 439.9375 516.230469 441.3125 L 506.523438 445.761719 C 504.28125 446.710938 502.71875 448.753906 502.542969 450.972656 C 502.457031 452.058594 502.683594 453.113281 503.21875 454.101562 C 504.863281 457.144531 508.363281 457.441406 510.914062 456.421875 C 510.964844 456.402344 511.019531 456.382812 511.066406 456.359375 L 518.070312 453.148438 L 524.9375 461.5 L 519.765625 468.675781 C 519.148438 469.527344 518.78125 470.539062 518.699219 471.589844 C 518.621094 472.535156 518.785156 473.496094 519.167969 474.367188 C 520.546875 477.488281 521.546875 480.769531 522.144531 484.121094 C 522.5 486.121094 523.910156 487.804688 525.8125 488.511719 L 530.445312 490.230469 L 530.542969 490.273438 C 530.648438 490.320312 530.769531 490.367188 530.890625 490.40625 L 534.101562 491.605469 L 533.039062 502.386719 L 524.347656 503.785156 C 522.339844 504.109375 520.636719 505.484375 519.902344 507.382812 C 518.671875 510.546875 517.054688 513.570312 515.101562 516.367188 C 514.515625 517.207031 514.164062 518.191406 514.085938 519.210938 C 514.007812 520.1875 514.183594 521.175781 514.59375 522.066406 L 518.285156 530.113281 L 509.941406 536.972656 L 504.332031 532.917969 C 504.0625 532.671875 503.773438 532.453125 503.476562 532.269531 L 502.734375 531.75 C 501.089844 530.570312 498.917969 530.347656 497.066406 531.164062 C 493.949219 532.535156 490.667969 533.535156 487.320312 534.125 C 485.320312 534.484375 483.640625 535.886719 482.933594 537.792969 L 479.863281 546.085938 L 469.109375 545.023438 L 467.800781 536.957031 C 467.578125 535.601562 466.746094 534.316406 465.515625 533.425781 C 464.265625 532.527344 462.765625 532.164062 461.289062 532.402344 C 459.394531 532.714844 457.402344 534.105469 456.714844 536.574219 C 456.605469 536.972656 456.527344 537.402344 456.492188 537.855469 C 456.453125 538.328125 456.464844 538.820312 456.523438 539.316406 C 456.527344 539.375 456.535156 539.429688 456.542969 539.480469 L 458.265625 550.085938 C 458.371094 550.75 458.570312 551.398438 458.859375 552.007812 C 459.9375 554.308594 462.179688 555.902344 464.695312 556.167969 L 481.996094 557.886719 C 485.285156 558.210938 488.386719 556.269531 489.53125 553.175781 L 492.636719 544.800781 C 493.082031 544.691406 493.515625 544.582031 493.9375 544.464844 C 495.589844 544.042969 497.179688 543.5625 498.664062 543.027344 L 505.851562 548.222656 C 508.53125 550.15625 512.183594 550.042969 514.738281 547.949219 L 528.125 536.945312 C 529.644531 535.699219 530.601562 533.855469 530.757812 531.894531 C 530.855469 530.660156 530.628906 529.414062 530.113281 528.285156 L 526.382812 520.15625 C 527.464844 518.382812 528.457031 516.535156 529.324219 514.652344 L 538.140625 513.234375 C 541.402344 512.710938 543.898438 510.046875 544.222656 506.761719 L 545.898438 489.5 L 545.910156 489.382812 C 546.027344 487.902344 545.699219 486.441406 544.960938 485.160156 C 544.125 483.675781 542.777344 482.527344 541.164062 481.929688 " fill-opacity="1" fill-rule="nonzero"/><path fill="#2e2a2b" d="M 493.257812 506.453125 C 487.707031 511.222656 479.804688 512.355469 473.125 509.328125 C 471.65625 508.660156 470.019531 508.609375 468.511719 509.175781 C 467.003906 509.742188 465.808594 510.863281 465.144531 512.332031 C 465.015625 512.613281 464.910156 512.910156 464.828125 513.207031 C 464.722656 513.578125 464.660156 513.957031 464.628906 514.339844 C 464.546875 515.378906 464.738281 516.425781 465.183594 517.375 C 465.796875 518.679688 466.851562 519.722656 468.15625 520.316406 C 473.457031 522.714844 479.3125 523.578125 485.085938 522.808594 C 491.019531 522.011719 496.566406 519.523438 501.125 515.605469 C 514.070312 504.480469 515.542969 484.882812 504.40625 471.917969 C 501.472656 468.503906 497.921875 465.824219 493.859375 463.953125 C 492.398438 463.28125 490.761719 463.21875 489.246094 463.777344 C 487.738281 464.339844 486.535156 465.449219 485.863281 466.914062 C 484.476562 469.933594 485.808594 473.523438 488.828125 474.910156 C 491.304688 476.050781 493.46875 477.6875 495.265625 479.777344 C 502.0625 487.691406 501.164062 499.660156 493.257812 506.453125 " fill-opacity="1" fill-rule="nonzero"/><path fill="#2e2a2b" d="M 516.878906 329.476562 C 518.523438 327.082031 520.78125 325.140625 523.402344 323.867188 C 527.441406 321.910156 532.011719 321.640625 536.265625 323.117188 C 540.515625 324.59375 543.933594 327.636719 545.890625 331.675781 C 547.84375 335.71875 548.109375 340.292969 546.625 344.550781 C 545.148438 348.808594 542.105469 352.230469 538.070312 354.191406 C 534.023438 356.152344 529.460938 356.417969 525.207031 354.941406 C 520.953125 353.464844 517.535156 350.425781 515.578125 346.382812 C 512.953125 340.949219 513.449219 334.472656 516.878906 329.476562 Z M 521.246094 366.339844 C 526.761719 368.253906 532.582031 368.460938 538.089844 366.996094 C 539.871094 366.519531 541.625 365.871094 543.320312 365.050781 C 547.820312 362.867188 551.691406 359.539062 554.515625 355.425781 C 560.398438 346.851562 561.25 335.734375 556.742188 326.414062 C 553.386719 319.472656 547.519531 314.257812 540.222656 311.722656 C 532.925781 309.1875 525.085938 309.648438 518.152344 313.011719 C 511.210938 316.375 505.996094 322.25 503.457031 329.558594 C 500.921875 336.863281 501.371094 344.707031 504.726562 351.648438 C 508.082031 358.585938 513.949219 363.804688 521.246094 366.339844 " fill-opacity="1" fill-rule="nonzero"/><path fill="#2e2a2b" d="M 245.777344 488.71875 L 237.535156 483.640625 C 234.972656 482.007812 231.648438 482.480469 229.628906 484.765625 C 229.152344 485.300781 228.777344 485.914062 228.515625 486.578125 C 227.5625 488.984375 228.226562 491.75 230.164062 493.464844 C 230.339844 493.621094 230.523438 493.765625 230.722656 493.90625 C 230.761719 493.933594 230.800781 493.960938 230.835938 493.980469 C 230.949219 494.058594 231.066406 494.128906 231.175781 494.191406 L 236.699219 497.609375 L 231.359375 515.316406 L 217.242188 514.804688 C 215.070312 514.726562 212.996094 515.816406 211.828125 517.644531 C 211.804688 517.679688 211.785156 517.714844 211.761719 517.75 C 209.097656 521.925781 205.925781 525.789062 202.339844 529.238281 C 201.699219 529.855469 201.207031 530.585938 200.878906 531.414062 C 200.410156 532.597656 200.320312 533.878906 200.613281 535.117188 L 203.898438 548.882812 L 187.613281 557.609375 L 177.980469 547.25 C 176.496094 545.65625 174.257812 544.957031 172.132812 545.429688 C 167.242188 546.515625 162.230469 547.015625 157.242188 546.914062 C 155.066406 546.871094 152.996094 548 151.867188 549.847656 L 148.160156 555.890625 C 148.121094 555.941406 148.085938 555.992188 148.054688 556.039062 C 147.980469 556.15625 147.902344 556.277344 147.839844 556.386719 L 144.449219 561.878906 L 126.742188 556.492188 L 127.242188 542.414062 C 127.320312 540.242188 126.230469 538.160156 124.394531 536.988281 C 120.183594 534.300781 116.289062 531.105469 112.820312 527.484375 C 111.308594 525.914062 109.058594 525.25 106.941406 525.753906 L 93.191406 529.027344 L 84.464844 512.722656 L 92.894531 504.867188 C 93.257812 504.613281 93.59375 504.320312 93.878906 504.007812 L 94.859375 503.066406 C 95.515625 502.453125 96.039062 501.683594 96.371094 500.839844 C 96.824219 499.6875 96.921875 498.4375 96.65625 497.226562 C 95.566406 492.335938 95.0625 487.320312 95.160156 482.324219 C 95.203125 480.144531 94.078125 478.085938 92.226562 476.941406 L 80.1875 469.535156 L 83.695312 457.90625 L 85.539062 451.832031 L 99.644531 452.34375 C 101.816406 452.421875 103.890625 451.332031 105.058594 449.5 C 105.078125 449.46875 105.101562 449.4375 105.121094 449.402344 C 107.792969 445.222656 110.960938 441.355469 114.546875 437.910156 C 115.1875 437.292969 115.679688 436.558594 116.007812 435.734375 C 116.476562 434.546875 116.566406 433.269531 116.269531 432.03125 L 112.984375 418.265625 L 129.269531 409.535156 L 133.804688 414.410156 C 134.042969 414.71875 134.308594 415.003906 134.597656 415.257812 C 135.824219 416.347656 137.40625 416.890625 139.050781 416.792969 C 140.695312 416.691406 142.199219 415.957031 143.289062 414.726562 C 143.765625 414.191406 144.136719 413.578125 144.402344 412.914062 C 145.328125 410.570312 144.710938 407.84375 142.878906 406.140625 L 136.199219 398.882812 C 133.617188 396.109375 129.488281 395.417969 126.160156 397.203125 L 104.441406 408.84375 C 103.570312 409.3125 102.796875 409.921875 102.140625 410.664062 C 101.5 411.390625 100.992188 412.21875 100.636719 413.121094 C 100.003906 414.722656 99.878906 416.449219 100.277344 418.125 L 103.480469 431.546875 C 101.015625 434.15625 98.722656 436.960938 96.65625 439.886719 L 82.882812 439.386719 C 79.90625 439.28125 77.132812 440.777344 75.566406 443.230469 C 75.285156 443.671875 75.042969 444.144531 74.84375 444.644531 C 74.769531 444.839844 74.699219 445.039062 74.636719 445.234375 L 72.753906 451.480469 L 67.472656 468.90625 C 66.378906 472.527344 67.863281 476.441406 71.082031 478.425781 L 82.824219 485.65625 C 82.851562 486.625 82.898438 487.617188 82.964844 488.597656 C 83.117188 491.359375 83.402344 494.003906 83.8125 496.464844 L 73.808594 505.785156 C 72.894531 506.632812 72.199219 507.65625 71.742188 508.8125 C 71.207031 510.160156 71.035156 511.628906 71.238281 513.058594 C 71.375 514.023438 71.679688 514.957031 72.140625 515.820312 L 83.785156 537.570312 C 85.566406 540.902344 89.382812 542.621094 93.058594 541.746094 L 106.46875 538.554688 C 109.074219 541.023438 111.875 543.324219 114.800781 545.394531 L 114.308594 559.179688 C 114.175781 562.960938 116.609375 566.363281 120.222656 567.460938 L 143.816406 574.609375 L 143.859375 574.625 C 145.515625 575.117188 147.253906 575.082031 148.890625 574.53125 C 150.746094 573.917969 152.339844 572.660156 153.363281 570.984375 L 160.578125 559.238281 C 164.160156 559.136719 167.765625 558.777344 171.296875 558.167969 L 180.695312 568.273438 C 183.273438 571.042969 187.398438 571.730469 190.726562 569.945312 L 212.441406 558.304688 C 214.175781 557.375 215.523438 555.855469 216.25 554.023438 C 216.882812 552.421875 217.007812 550.691406 216.605469 549.019531 L 213.402344 535.597656 C 215.867188 532.992188 218.164062 530.1875 220.230469 527.261719 L 234 527.757812 C 237.515625 527.886719 240.746094 525.773438 242.039062 522.5 C 242.125 522.289062 242.203125 522.066406 242.269531 521.84375 L 249.386719 498.238281 L 249.40625 498.179688 C 250.464844 494.582031 248.972656 490.6875 245.777344 488.71875 " fill-opacity="1" fill-rule="nonzero"/><path fill="#2e2a2b" d="M 140.972656 478 C 142.625 473.820312 145.808594 470.535156 149.941406 468.746094 C 154.070312 466.960938 158.644531 466.886719 162.820312 468.542969 C 168.429688 470.769531 172.445312 475.875 173.296875 481.875 C 173.707031 484.753906 173.355469 487.707031 172.285156 490.417969 C 170.632812 494.59375 167.449219 497.882812 163.316406 499.667969 C 159.1875 501.457031 154.613281 501.53125 150.4375 499.875 C 146.265625 498.222656 142.980469 495.03125 141.191406 490.890625 C 139.402344 486.753906 139.324219 482.175781 140.972656 478 Z M 132.296875 468.585938 C 131.304688 470.140625 130.457031 471.800781 129.761719 473.554688 C 127.921875 478.207031 127.324219 483.277344 128.027344 488.21875 C 129.488281 498.507812 136.378906 507.277344 146.003906 511.09375 C 153.167969 513.933594 161.019531 513.808594 168.109375 510.742188 C 175.195312 507.671875 180.664062 502.035156 183.496094 494.863281 C 186.328125 487.691406 186.199219 479.835938 183.128906 472.738281 C 180.058594 465.640625 174.417969 460.164062 167.253906 457.324219 C 160.089844 454.484375 152.238281 454.609375 145.148438 457.675781 C 139.792969 459.992188 135.367188 463.78125 132.296875 468.585938 " fill-opacity="1" fill-rule="nonzero"/><g clip-path="url(#a44785c6d0)"><path fill="#2e2a2b" d="M 387.636719 193.675781 C 411.140625 193.675781 430.261719 212.800781 430.261719 236.304688 C 430.261719 259.808594 411.140625 278.933594 387.636719 278.933594 C 364.128906 278.933594 345.007812 259.808594 345.007812 236.304688 C 345.007812 212.800781 364.128906 193.675781 387.636719 193.675781 Z M 387.636719 291.078125 C 402.265625 291.078125 416.019531 285.378906 426.367188 275.035156 C 436.710938 264.6875 442.410156 250.933594 442.410156 236.304688 C 442.410156 221.671875 436.710938 207.917969 426.367188 197.570312 C 416.019531 187.226562 402.265625 181.527344 387.636719 181.527344 C 373.003906 181.527344 359.253906 187.226562 348.902344 197.570312 C 338.558594 207.917969 332.859375 221.671875 332.859375 236.304688 C 332.859375 250.933594 338.558594 264.6875 348.902344 275.035156 C 359.253906 285.378906 373.003906 291.078125 387.636719 291.078125 " fill-opacity="1" fill-rule="nonzero"/></g><g clip-path="url(#133064264d)"><path fill="#2e2a2b" d="M 455.65625 466.855469 C 455.65625 473.851562 449.960938 479.550781 442.960938 479.550781 C 442.210938 479.550781 441.457031 479.484375 440.722656 479.351562 L 437.925781 478.851562 L 437.925781 392.753906 C 437.925781 389.402344 435.199219 386.679688 431.851562 386.679688 C 428.5 386.679688 425.78125 389.402344 425.78125 392.753906 L 425.78125 490.632812 L 419.695312 600.308594 L 419.695312 600.347656 C 419.695312 609.171875 412.515625 616.347656 403.691406 616.347656 L 371.574219 616.347656 C 362.753906 616.347656 355.574219 609.171875 355.574219 600.339844 L 349.492188 490 L 349.492188 392.753906 C 349.492188 389.402344 346.765625 386.679688 343.417969 386.679688 C 340.070312 386.679688 337.34375 389.402344 337.34375 392.753906 L 337.34375 478.851562 L 334.546875 479.351562 C 333.8125 479.484375 333.0625 479.550781 332.308594 479.550781 C 325.308594 479.550781 319.617188 473.851562 319.617188 466.855469 L 319.617188 352.601562 C 319.617188 333.996094 334.75 318.863281 353.355469 318.863281 L 421.914062 318.863281 C 440.519531 318.863281 455.65625 333.996094 455.65625 352.601562 Z M 467.800781 466.855469 L 467.800781 352.601562 C 467.800781 340.34375 463.027344 328.820312 454.363281 320.152344 C 445.695312 311.484375 434.171875 306.714844 421.914062 306.714844 L 353.355469 306.714844 C 341.097656 306.714844 329.574219 311.484375 320.90625 320.152344 C 312.238281 328.820312 307.46875 340.34375 307.46875 352.601562 L 307.46875 466.855469 C 307.46875 480.554688 318.613281 491.695312 332.308594 491.695312 C 332.863281 491.695312 333.429688 491.675781 333.980469 491.640625 L 337.40625 491.40625 L 343.429688 600.453125 C 343.484375 615.917969 356.117188 628.496094 371.574219 628.496094 L 403.691406 628.496094 C 419.15625 628.496094 431.78125 615.917969 431.839844 600.460938 L 431.84375 600.277344 L 437.859375 491.40625 L 441.292969 491.640625 C 441.84375 491.675781 442.402344 491.695312 442.960938 491.695312 C 456.660156 491.695312 467.800781 480.554688 467.800781 466.855469 " fill-opacity="1" fill-rule="nonzero"/></g><path fill="#2e2a2b" d="M 290.792969 308.078125 C 290.210938 307.578125 289.558594 307.207031 288.875 306.964844 C 287.824219 306.515625 286.765625 306.101562 285.722656 305.726562 C 277.640625 302.828125 269.171875 301.738281 260.554688 302.488281 C 252.566406 303.183594 244.949219 305.421875 237.917969 309.144531 C 231.125 312.742188 225.167969 317.558594 220.203125 323.464844 C 215.242188 329.371094 211.527344 336.070312 209.15625 343.382812 C 206.703125 350.953125 205.8125 358.84375 206.503906 366.828125 C 207.507812 378.375 211.804688 389.273438 218.933594 398.347656 C 221.335938 401.410156 224.046875 404.242188 226.988281 406.769531 C 232.519531 411.519531 238.808594 415.179688 245.675781 417.640625 C 253.761719 420.539062 262.226562 421.628906 270.84375 420.878906 C 273.769531 420.625 276.675781 420.15625 279.511719 419.484375 C 279.523438 419.480469 279.53125 419.472656 279.542969 419.464844 C 280.714844 419.167969 281.8125 418.519531 282.660156 417.535156 C 284.855469 414.980469 284.5625 411.128906 282.007812 408.933594 C 280.402344 407.554688 278.285156 407.160156 276.390625 407.6875 C 274.214844 408.191406 271.996094 408.542969 269.789062 408.738281 C 262.933594 409.332031 256.207031 408.46875 249.789062 406.167969 C 244.359375 404.222656 239.382812 401.320312 234.992188 397.550781 C 225.527344 389.417969 219.722656 378.132812 218.648438 365.773438 C 216.394531 339.828125 235.664062 316.886719 261.609375 314.632812 C 268.464844 314.035156 275.191406 314.898438 281.609375 317.199219 C 282.457031 317.503906 283.320312 317.84375 284.175781 318.207031 C 284.207031 318.21875 284.242188 318.234375 284.277344 318.246094 C 286.683594 319.355469 289.632812 318.789062 291.445312 316.675781 C 293.640625 314.125 293.347656 310.273438 290.792969 308.078125 " fill-opacity="1" fill-rule="nonzero"/><path fill="#2e2a2b" d="M 317.199219 279.425781 C 317.535156 279.167969 317.855469 278.871094 318.140625 278.539062 C 320.335938 275.984375 320.042969 272.136719 317.492188 269.941406 C 315.546875 268.269531 312.855469 268.039062 310.710938 269.152344 C 310.371094 269.300781 310.078125 269.464844 309.921875 269.570312 L 300.378906 276.40625 C 295.820312 274.550781 291.09375 273.054688 286.300781 271.953125 L 280.261719 255.109375 C 279.75 253.683594 278.871094 252.410156 277.722656 251.421875 C 275.953125 249.898438 273.605469 249.140625 271.285156 249.328125 C 271.269531 249.328125 271.257812 249.332031 271.242188 249.332031 L 240.855469 251.972656 C 236.890625 252.320312 233.644531 255.300781 232.96875 259.222656 L 229.925781 276.851562 C 224.949219 278.933594 220.476562 281.207031 216.605469 283.613281 L 200.574219 276.066406 C 196.972656 274.371094 192.671875 275.316406 190.113281 278.367188 L 170.515625 301.738281 C 167.960938 304.789062 167.777344 309.1875 170.074219 312.4375 L 180.402344 327.050781 C 178.550781 331.605469 177.066406 336.339844 175.96875 341.136719 L 159.125 347.199219 C 155.382812 348.546875 153.007812 352.257812 153.359375 356.21875 L 154.789062 372.503906 L 155.992188 386.53125 C 156.089844 387.636719 156.390625 388.703125 156.878906 389.679688 C 157.40625 390.761719 158.136719 391.707031 159.054688 392.496094 C 160.257812 393.527344 161.71875 394.214844 163.277344 394.484375 L 174.664062 396.441406 C 174.808594 396.464844 174.953125 396.472656 175.097656 396.464844 L 180.871094 397.460938 C 182.78125 401.992188 185.070312 406.386719 187.6875 410.558594 L 180.046875 426.75 C 178.367188 430.308594 179.28125 434.585938 182.261719 437.144531 L 205.691406 456.828125 C 208.738281 459.386719 213.140625 459.574219 216.390625 457.28125 L 231.019531 446.960938 C 235.582031 448.820312 240.308594 450.316406 245.097656 451.417969 L 251.140625 468.257812 C 251.652344 469.683594 252.527344 470.960938 253.675781 471.949219 C 255.457031 473.476562 257.820312 474.238281 260.15625 474.035156 L 272.800781 472.929688 C 272.953125 472.921875 273.101562 472.910156 273.25 472.886719 L 273.253906 472.886719 C 273.3125 472.882812 273.363281 472.875 273.40625 472.863281 C 274.792969 472.652344 276.117188 471.960938 277.101562 470.8125 C 279.296875 468.257812 279.003906 464.410156 276.449219 462.214844 C 275.066406 461.027344 273.304688 460.570312 271.628906 460.804688 L 261.722656 461.664062 L 255.421875 444.09375 C 255.066406 443.101562 254.453125 442.214844 253.65625 441.527344 C 252.847656 440.832031 251.863281 440.359375 250.816406 440.160156 C 244.628906 438.992188 238.570312 437.074219 232.804688 434.464844 C 230.847656 433.578125 228.535156 433.796875 226.78125 435.035156 L 211.515625 445.804688 L 192.191406 429.570312 L 200.164062 412.679688 C 201.082031 410.734375 200.902344 408.417969 199.6875 406.640625 C 196.121094 401.417969 193.191406 395.78125 190.96875 389.886719 C 190.609375 388.933594 190.011719 388.074219 189.238281 387.414062 C 188.402344 386.695312 187.386719 386.214844 186.304688 386.027344 L 167.933594 382.855469 L 167.054688 372.855469 L 165.78125 357.972656 C 165.777344 357.90625 165.773438 357.835938 165.765625 357.765625 L 183.304688 351.453125 C 185.328125 350.726562 186.835938 348.957031 187.230469 346.84375 C 188.398438 340.632812 190.304688 334.570312 192.898438 328.824219 C 193.785156 326.863281 193.5625 324.554688 192.320312 322.796875 L 181.546875 307.554688 L 197.761719 288.214844 L 212.5 295.15625 C 212.632812 295.222656 212.757812 295.28125 212.886719 295.335938 L 214.652344 296.167969 C 215.988281 296.796875 217.507812 296.921875 218.929688 296.511719 C 219.578125 296.332031 220.1875 296.050781 220.746094 295.671875 C 225.964844 292.105469 231.605469 289.171875 237.5 286.949219 C 239.511719 286.195312 240.992188 284.402344 241.355469 282.285156 L 244.535156 263.890625 L 269.675781 261.703125 L 275.976562 279.277344 C 276.335938 280.269531 276.945312 281.15625 277.742188 281.84375 C 278.550781 282.535156 279.535156 283.007812 280.582031 283.207031 C 286.773438 284.378906 292.832031 286.292969 298.589844 288.902344 C 300.550781 289.792969 302.863281 289.574219 304.621094 288.332031 L 316.964844 279.625 C 317.046875 279.5625 317.125 279.5 317.199219 279.425781 " fill-opacity="1" fill-rule="nonzero"/><g clip-path="url(#059117a194)"><path fill="#2e2a2b" d="M 739.273438 436.238281 L 726.898438 429.511719 C 726.597656 425.824219 726.039062 422.152344 725.214844 418.554688 L 734.996094 408.421875 C 737.617188 405.703125 738.082031 401.550781 736.125 398.324219 L 723.128906 376.910156 L 723.0625 376.796875 C 721.082031 373.648438 717.230469 372.1875 713.65625 373.246094 L 700.148438 377.242188 C 697.339844 374.851562 694.339844 372.652344 691.210938 370.691406 L 690.957031 356.601562 C 690.894531 352.828125 688.285156 349.5625 684.617188 348.664062 L 660.285156 342.710938 C 656.621094 341.8125 652.800781 343.5 651 346.816406 L 644.269531 359.199219 C 641.480469 359.421875 638.441406 359.839844 635.695312 360.367188 C 633.445312 360.796875 631.53125 362.480469 630.925781 364.847656 C 630.09375 368.109375 632.0625 371.433594 635.328125 372.273438 C 636.273438 372.511719 637.222656 372.519531 638.121094 372.328125 C 641.460938 371.675781 644.816406 371.351562 648.226562 371.242188 C 650.382812 371.167969 652.367188 369.941406 653.402344 368.042969 L 660.3125 355.324219 L 678.765625 359.84375 L 679.023438 374.316406 C 679.0625 376.476562 680.253906 378.480469 682.140625 379.542969 C 686.585938 382.046875 690.722656 385.082031 694.4375 388.550781 C 696.015625 390.03125 698.285156 390.566406 700.355469 389.953125 L 714.230469 385.847656 L 724.082031 402.09375 L 714.039062 412.5 C 712.539062 414.054688 711.964844 416.316406 712.542969 418.398438 C 713.90625 423.292969 714.6875 428.363281 714.855469 433.46875 C 714.929688 435.628906 716.15625 437.609375 718.054688 438.644531 L 730.769531 445.558594 L 726.253906 464.011719 L 711.78125 464.269531 C 709.617188 464.304688 707.613281 465.5 706.554688 467.382812 C 704.050781 471.828125 701.015625 475.964844 697.546875 479.679688 C 696.066406 481.257812 695.53125 483.527344 696.148438 485.597656 L 700.242188 499.457031 L 693.9375 503.289062 L 684.03125 509.277344 L 673.628906 499.253906 C 672.070312 497.753906 669.808594 497.183594 667.722656 497.765625 C 662.816406 499.144531 657.746094 499.929688 652.664062 500.101562 C 650.503906 500.179688 648.519531 501.40625 647.492188 503.304688 L 640.59375 516.023438 L 622.136719 511.523438 L 621.902344 499.027344 C 621.902344 498.898438 621.898438 498.769531 621.894531 498.644531 L 621.867188 497.054688 C 621.835938 495.578125 621.277344 494.15625 620.277344 493.058594 C 619.828125 492.550781 619.300781 492.128906 618.714844 491.796875 C 614.269531 489.292969 610.132812 486.261719 606.417969 482.789062 C 604.839844 481.3125 602.570312 480.777344 600.5 481.386719 L 586.625 485.492188 L 576.773438 469.25 L 586.820312 458.839844 C 588.320312 457.285156 588.890625 455.023438 588.308594 452.945312 C 587.9375 451.597656 587.605469 450.238281 587.320312 448.871094 C 586.914062 446.9375 586.570312 444.96875 586.34375 443.003906 C 586.339844 442.96875 586.335938 442.933594 586.332031 442.902344 C 586.328125 442.867188 586.324219 442.828125 586.320312 442.785156 C 586.320312 442.785156 586.3125 442.785156 586.3125 442.785156 C 585.996094 440.394531 584.261719 438.324219 581.78125 437.6875 C 578.519531 436.851562 575.195312 438.820312 574.355469 442.085938 C 574.140625 442.933594 574.117188 443.789062 574.25 444.601562 C 574.574219 447.433594 575.007812 450.015625 575.640625 452.785156 L 565.855469 462.917969 C 563.257812 465.609375 562.78125 469.722656 564.6875 472.9375 L 577.722656 494.433594 C 579.683594 497.660156 583.578125 499.167969 587.203125 498.09375 L 600.703125 494.101562 C 603.75 496.71875 606.761719 498.976562 609.683594 500.832031 L 609.945312 514.773438 C 610.015625 518.550781 612.628906 521.8125 616.296875 522.707031 L 640.632812 528.636719 C 644.300781 529.535156 648.117188 527.839844 649.917969 524.523438 L 656.628906 512.140625 C 660.3125 511.839844 663.984375 511.269531 667.582031 510.441406 L 677.734375 520.21875 C 680.453125 522.835938 684.605469 523.296875 687.828125 521.335938 L 699.296875 514.363281 L 709.1875 508.375 C 710.089844 507.832031 710.863281 507.128906 711.496094 506.296875 C 713.125 504.179688 713.644531 501.394531 712.886719 498.84375 L 709.613281 487.8125 L 709.574219 487.8125 L 708.855469 485.390625 C 711.246094 482.582031 713.441406 479.585938 715.40625 476.453125 L 729.496094 476.203125 C 733.273438 476.132812 736.535156 473.527344 737.429688 469.859375 L 743.386719 445.53125 C 744.28125 441.863281 742.59375 438.039062 739.273438 436.238281 " fill-opacity="1" fill-rule="nonzero"/></g><path fill="#2e2a2b" d="M 669.96875 467.871094 C 661.378906 473.082031 651.265625 474.632812 641.476562 472.238281 C 631.695312 469.839844 623.4375 463.792969 618.230469 455.207031 C 615.382812 450.515625 613.625 445.402344 613.003906 440 C 612.839844 438.566406 612.71875 436.804688 612.71875 435.386719 C 612.90625 432.515625 611.03125 429.832031 608.144531 429.089844 C 604.882812 428.253906 601.558594 430.222656 600.71875 433.488281 C 600.574219 434.050781 600.519531 434.613281 600.53125 435.167969 C 600.53125 437.070312 600.617188 439.496094 600.835938 441.398438 C 601.660156 448.566406 603.992188 455.351562 607.761719 461.558594 C 611.25 467.320312 615.769531 472.222656 621.195312 476.136719 C 626.425781 479.914062 632.273438 482.609375 638.566406 484.152344 C 644.855469 485.695312 651.289062 486 657.675781 485.066406 C 664.289062 484.101562 670.5625 481.835938 676.320312 478.34375 C 684.644531 473.296875 691.25 466 695.4375 457.257812 C 699.511719 448.746094 701.097656 439.300781 700.023438 429.941406 C 699.199219 422.773438 696.871094 415.988281 693.101562 409.777344 C 689.609375 404.019531 685.089844 399.117188 679.667969 395.203125 C 674.4375 391.425781 668.589844 388.726562 662.292969 387.1875 C 656 385.648438 649.570312 385.339844 643.183594 386.273438 C 640.242188 386.703125 637.421875 387.382812 634.625 388.320312 C 632.648438 388.917969 631.023438 390.503906 630.472656 392.648438 C 629.632812 395.914062 631.605469 399.238281 634.871094 400.074219 C 636.003906 400.367188 637.148438 400.316406 638.195312 399.992188 C 638.195312 399.992188 638.199219 399.992188 638.199219 399.992188 C 638.234375 399.980469 638.265625 399.96875 638.300781 399.957031 C 638.351562 399.941406 638.402344 399.925781 638.453125 399.90625 C 654.820312 394.320312 673.296875 400.75 682.632812 416.132812 C 685.476562 420.824219 687.238281 425.941406 687.855469 431.339844 C 689.53125 445.917969 682.507812 460.261719 669.96875 467.871094 " fill-opacity="1" fill-rule="nonzero"/></svg>